<?xml version="1.0" encoding="UTF-8"?>
<svg version="1.1" xmlns="http://www.w3.org/2000/svg" width="3901" height="3900">
<path d="M0 0 C37.91154187 -0.32094763 75.82287793 -0.5673888 113.73550516 -0.71491461 C118.21869185 -0.732423 122.70187588 -0.75054366 127.18505859 -0.76904297 C128.07752144 -0.77271531 128.96998428 -0.77638766 129.88949145 -0.78017129 C144.31103592 -0.8409714 158.73179338 -0.95128784 173.15287207 -1.08013915 C187.96737242 -1.21139457 202.78146266 -1.28889261 217.59652054 -1.31723893 C226.72736245 -1.33638128 235.85597948 -1.39666975 244.98613586 -1.51083054 C251.26030451 -1.5852502 257.53333537 -1.60711014 263.80791257 -1.58901928 C267.42068973 -1.58011265 271.02960158 -1.5930419 274.64167786 -1.66887665 C290.97474065 -1.99492829 302.27045284 -1.14372709 314.43722725 10.48068047 C315.03188797 11.07751381 315.6265487 11.67434715 316.23922944 12.28926635 C318.90925866 14.8834197 321.82519888 17.03133689 324.8125 19.25 C325.84503906 20.04277344 326.87757813 20.83554688 327.94140625 21.65234375 C329.45541016 22.81443359 329.45541016 22.81443359 331 24 C333.08342246 25.60405092 335.1667538 27.20822017 337.25 28.8125 C344.36644521 34.28801469 351.49802608 39.7436916 358.63427734 45.19335938 C360.25199521 46.42876827 361.86949825 47.66445851 363.48681641 48.90039062 C373.78063823 56.76533314 384.09978638 64.59373516 394.4753418 72.35058594 C400.55633931 76.90192678 406.59444588 81.50712267 412.625 86.125 C421.95611273 93.26429911 431.4419392 100.16900989 441 107 C435.90002417 94.11347717 430.65478814 81.29788923 425.24478149 68.53848267 C424.02800931 65.6686516 422.81396161 62.79767913 421.6003418 59.92651367 C417.41377925 50.02760487 413.20802473 40.13704466 408.984375 30.25390625 C408.18997975 28.39292201 407.39562666 26.53191978 406.60131836 24.67089844 C405.09855646 21.15018515 403.59085632 17.63164246 402.08032227 14.11425781 C401.40364396 12.5306693 400.72712118 10.94701431 400.05078125 9.36328125 C399.7392511 8.64153214 399.42772095 7.91978302 399.10675049 7.17616272 C397 2.22725581 397 2.22725581 397 0 C610.18 0 823.36 0 1043 0 C1046.465 18.81 1046.465 18.81 1050 38 C1063.23345798 91.69002952 1082.8044413 145.40771005 1120.9140625 186.7265625 C1122.8522255 188.8389424 1124.71023271 190.99998072 1126.5625 193.1875 C1130.07742764 197.19658981 1133.89049199 200.61111661 1138 204 C1138.52094238 204.43860352 1139.04188477 204.87720703 1139.57861328 205.32910156 C1193.93768394 250.99744134 1273.78880044 263.13433822 1342.65625 257.6875 C1374.05425688 254.92289562 1416.53568053 248.53253541 1441.3046875 226.99609375 C1443.02198034 224.72268277 1443.98259663 222.66498942 1445 220 C1445.48984375 218.80632812 1445.9796875 217.61265625 1446.484375 216.3828125 C1455.46326702 192.95538443 1457.48818545 166.80654798 1460 142 C1460.1037796 140.97942505 1460.1037796 140.97942505 1460.20965576 139.93823242 C1463.86960146 103.43298532 1464.63135006 66.64554098 1466 30 C1466.66 30 1467.32 30 1468 30 C1470.87266139 45.96737007 1473.74135854 61.93544645 1476.60533142 77.90437698 C1477.93519894 85.31891539 1479.2663653 92.73321623 1480.60058594 100.14697266 C1481.76341341 106.60838134 1482.92380751 113.07022145 1484.08127499 119.53259254 C1484.69429468 122.95471288 1485.30853522 126.37660396 1485.9256897 129.79798126 C1486.61439366 133.61627486 1487.29766483 137.43552949 1487.98046875 141.25488281 C1488.186185 142.39064255 1488.39190125 143.52640228 1488.60385132 144.69657898 C1488.78896271 145.73701859 1488.9740741 146.77745819 1489.16479492 147.84942627 C1489.32703049 148.75278339 1489.48926605 149.65614052 1489.65641785 150.5868721 C1490 153 1490 153 1490 157 C1528.28 157 1566.56 157 1606 157 C1606.66 152.38 1607.32 147.76 1608 143 C1608.65723596 139.07915641 1609.32905708 135.16548189 1610.03125 131.25292969 C1610.22340088 130.17145157 1610.41555176 129.08997345 1610.61352539 127.97572327 C1611.23958606 124.4572742 1611.86942169 120.93951704 1612.5 117.421875 C1612.7163208 116.2125959 1612.9326416 115.0033168 1613.15551758 113.75739288 C1614.29623398 107.38089626 1615.43983403 101.00492502 1616.5859375 94.62939453 C1617.65196318 88.6964935 1618.71075814 82.7623466 1619.76581573 76.82748675 C1620.7851934 71.09602857 1621.81324439 65.3661528 1622.84448242 59.63681793 C1623.28090819 57.2051208 1623.7146724 54.77294446 1624.14575195 52.34029388 C1624.7459898 48.95692286 1625.35609583 45.57547733 1625.96875 42.19433594 C1626.14543213 41.18558914 1626.32211426 40.17684235 1626.50415039 39.13752747 C1626.67229248 38.22103928 1626.84043457 37.30455109 1627.01367188 36.36029053 C1627.22824036 35.16250284 1627.22824036 35.16250284 1627.44714355 33.94051743 C1628 32 1628 32 1630 30 C1630.02870178 30.73865799 1630.05740356 31.47731598 1630.0869751 32.23835754 C1626.04460904 135.98388745 1626.04460904 135.98388745 1656.92578125 228.36328125 C1685.46006703 250.87903595 1732.4919138 258.03650621 1767.7109375 258.203125 C1768.70851578 258.21022995 1769.70609406 258.2173349 1770.73390198 258.22465515 C1813.37817896 258.45909056 1853.5306695 253.98462794 1894 240 C1894.93618164 239.67918457 1895.87236328 239.35836914 1896.83691406 239.02783203 C1931.26008223 227.05693515 1960.26009452 206.47501392 1983 178 C1983.98806641 176.81277344 1983.98806641 176.81277344 1984.99609375 175.6015625 C2022.41187263 130.28104161 2042.20136687 69.14158783 2051.140625 11.828125 C2051.32125488 10.68424316 2051.50188477 9.54036133 2051.68798828 8.36181641 C2052.12771934 5.57491161 2052.5650131 2.7876485 2053 0 C2087.78673898 -0.18310626 2122.57336796 -0.32407463 2157.36048475 -0.40852264 C2161.46729336 -0.4185283 2165.57410101 -0.42888288 2169.6809082 -0.43945312 C2170.49850048 -0.44155161 2171.31609275 -0.44365009 2172.15846055 -0.44581217 C2185.39732535 -0.48062396 2198.63591227 -0.54370098 2211.87461222 -0.61722237 C2225.45850775 -0.6920317 2239.04225774 -0.73646955 2252.62635082 -0.75270796 C2261.00882144 -0.76368581 2269.39050667 -0.79835764 2277.77273553 -0.86333174 C2283.52058201 -0.90561639 2289.26802242 -0.91840182 2295.01601315 -0.90801102 C2298.33285574 -0.9028857 2301.6480364 -0.91511564 2304.96469879 -0.9536438 C2308.56293708 -0.99339779 2312.15780399 -0.98390161 2315.75611877 -0.96203613 C2316.80184872 -0.98533886 2317.84757866 -1.0086416 2318.92499739 -1.03265047 C2323.04474276 -0.96488743 2325.86078806 -0.91289069 2329.14688671 1.72037601 C2330.93271313 3.73573039 2332.47728948 5.78172033 2334 8 C2334.94923931 9.19114722 2335.90493448 10.37722276 2336.87109375 11.5546875 C2337.72927622 12.65935546 2338.5847994 13.76609507 2339.4375 14.875 C2339.88287109 15.4421875 2340.32824219 16.009375 2340.78710938 16.59375 C2344 20.75915659 2344 20.75915659 2344 23 C2344.91640259 23.05288177 2345.83280518 23.10576355 2346.77697754 23.1602478 C2355.67795483 23.70862603 2364.49161385 24.56147725 2373.34375 25.6640625 C2375.3207976 25.90292267 2377.29784655 26.14177219 2379.27497101 26.37999535 C2384.07129346 26.9589537 2388.86659138 27.54613095 2393.66113281 28.13964844 C2396.38048623 28.47593171 2399.10035091 28.80735855 2401.82092285 29.13363647 C2404.36277351 29.43878035 2406.90377348 29.75112244 2409.44372559 30.07168579 C2418.96687065 31.20385973 2425.84462619 30.39641538 2434.609375 26.640625 C2435.41683167 26.29553894 2436.22428833 25.95045288 2437.05621338 25.59490967 C2438.75947039 24.86033976 2440.46043053 24.12042363 2442.15917969 23.37548828 C2443.87258699 22.63116038 2445.59267506 21.90200819 2447.31933594 21.18896484 C2449.84872348 20.14434427 2452.3541269 19.05420514 2454.859375 17.953125 C2455.61184509 17.65150452 2456.36431519 17.34988403 2457.1395874 17.03912354 C2461.93235062 14.85423934 2464.27667554 12.69279861 2467.07602317 8.18962352 C2469.79226082 4.13375593 2472.60119488 0.76845509 2477.36394821 -0.75728871 C2484.62274963 -1.99060878 2491.99439689 -1.68622441 2499.3289032 -1.56330872 C2501.8380445 -1.56898019 2504.34717829 -1.58036736 2506.85627109 -1.59696788 C2512.30532993 -1.61995561 2517.75195228 -1.60271326 2523.20075989 -1.54967117 C2531.30219048 -1.47102663 2539.40246063 -1.46732221 2547.50420337 -1.47871703 C2561.1337421 -1.49577657 2574.76245999 -1.45244211 2588.39175987 -1.37449074 C2601.88319654 -1.29752593 2615.37429121 -1.24752495 2628.86594582 -1.23340416 C2630.12500083 -1.23206374 2630.12500083 -1.23206374 2631.40949131 -1.23069623 C2635.67235967 -1.2262978 2639.93522833 -1.22237985 2644.19809733 -1.21864685 C2674.37928641 -1.19135325 2704.5600291 -1.10380107 2734.7409668 -0.98071289 C2764.05832549 -0.86128483 2793.37556196 -0.76921301 2822.69311523 -0.71411133 C2823.59706633 -0.71240149 2824.50101742 -0.71069165 2825.43236098 -0.70892999 C2834.51034461 -0.69178899 2843.58832919 -0.67520345 2852.66631458 -0.65902482 C2871.15863783 -0.6260555 2889.65095312 -0.58937922 2908.14326477 -0.55046082 C2909.41858892 -0.54778366 2909.41858892 -0.54778366 2910.71967719 -0.54505242 C2967.47997175 -0.42547662 3024.24001374 -0.21922214 3081 0 C3077.82650076 2.11566616 3075.2616699 2.94742304 3071.61230469 4.02441406 C3070.64086407 4.31341693 3070.64086407 4.31341693 3069.64979839 4.60825825 C3067.49189865 5.24891316 3065.33192939 5.88227629 3063.171875 6.515625 C3061.64440575 6.96740846 3060.11706965 7.4196423 3058.58985901 7.87229919 C3055.3369032 8.83551605 3052.08305388 9.79563266 3048.82852173 10.75350952 C3043.74178158 12.25116162 3038.65818869 13.75930875 3033.57495117 15.26879883 C3019.98485639 19.30152655 3006.39439812 23.33112638 2992.76571655 27.23184204 C2988.55865864 28.43632483 2984.35534553 29.65357542 2980.15222168 30.8717041 C2977.43258128 31.65300302 2974.70751528 32.41240724 2971.98144531 33.17089844 C2959.60905389 36.7032388 2948.35371978 41.79711418 2936.86862183 47.56356812 C2933.18569543 49.40775436 2929.48206673 51.2077385 2925.77745056 53.00784302 C2922.09866127 54.79698492 2918.42616904 56.59886142 2914.753479 58.40048218 C2911.75655011 59.87060477 2908.75896738 61.33938713 2905.76123047 62.80786133 C2901.57176552 64.86015828 2897.38249786 66.91285708 2893.19335938 68.96582031 C2883.50674262 73.71217921 2873.81600047 78.45009982 2864.125 83.1875 C2863.1966333 83.64137085 2862.2682666 84.0952417 2861.31176758 84.56286621 C2838.48181215 95.7239353 2838.48181215 95.7239353 2829.00793457 100.33758545 C2824.79759673 102.38852073 2820.59161794 104.4474576 2816.39453125 106.52539062 C2808.34076567 110.50107839 2800.26488476 114.36372558 2792.03952026 117.97395325 C2788.02194352 119.74444242 2784.02676355 121.5625423 2780.03253174 123.38497925 C2778.11713131 124.24304342 2776.1912578 125.07815616 2774.25506592 125.88821411 C2763.61705092 130.06985849 2763.61705092 130.06985849 2756.28491211 138.28344727 C2755.56461947 141.95902717 2755.25749074 145.3666959 2755.13757324 149.09799194 C2754.84855568 155.19460835 2754.01010324 161.2562495 2753.30078125 167.31640625 C2753.05567708 169.43228627 2752.81135366 171.54825437 2752.56750107 173.66427898 C2752.40069723 175.10646587 2752.23246455 176.54848817 2752.06283951 177.99034595 C2751.63564507 181.64281884 2751.23498078 185.29483958 2750.88745117 188.95581055 C2748.07715076 218.17566396 2748.07715076 218.17566396 2736.03596497 228.26063538 C2734.69499265 229.31183316 2733.34378311 230.35012354 2731.98188782 231.37406921 C2728.55209279 234.18785579 2725.82043995 237.59430915 2723 241 C2722.14277344 241.97582031 2721.28554687 242.95164062 2720.40234375 243.95703125 C2714.06392811 251.29995016 2708.25326901 258.93523307 2702.59545898 266.81567383 C2702.02641846 267.60353271 2701.45737793 268.3913916 2700.87109375 269.203125 C2700.11203735 270.26515137 2700.11203735 270.26515137 2699.33764648 271.34863281 C2697.12175949 274.08421588 2695.78497649 274.02704953 2692.18869972 274.47945404 C2690.49043864 274.65261873 2688.79171888 274.82131599 2687.09268188 274.98669434 C2685.69165177 275.12780018 2685.69165177 275.12780018 2684.26231802 275.27175665 C2681.11355612 275.58792282 2677.96426016 275.89841772 2674.81494141 276.20898438 C2672.56497276 276.43375971 2670.31503966 276.65889116 2668.06513977 276.88435364 C2663.21062915 277.37007525 2658.35587984 277.85331322 2653.5009346 278.33467102 C2645.82893337 279.09540292 2638.1575155 279.8619049 2630.48617554 280.62927246 C2619.73417785 281.70422197 2608.98194992 282.77683065 2598.22949219 283.84716797 C2597.54682165 283.9151243 2596.86415111 283.98308062 2596.16079359 284.05309623 C2593.39473759 284.32843689 2590.62868057 284.60376726 2587.8626223 284.87908509 C2580.25212561 285.63660674 2572.64167396 286.3945801 2565.03125 287.15283203 C2564.35001507 287.2207048 2563.66878014 287.28857757 2562.96690173 287.3585071 C2551.61224733 288.48987507 2540.2578305 289.62360873 2528.90356004 290.75882387 C2521.27297515 291.52153848 2513.64209549 292.28121383 2506.01097512 293.03855133 C2501.26772488 293.50985495 2496.52471869 293.98357958 2491.78177452 294.4579525 C2489.57757903 294.67789028 2487.37328061 294.89679921 2485.16887474 295.1146183 C2482.16606632 295.41146264 2479.16364168 295.71192772 2476.1612854 296.01330566 C2474.84426807 296.14215094 2474.84426807 296.14215094 2473.50064433 296.27359915 C2472.69621594 296.3550916 2471.89178756 296.43658404 2471.06298256 296.52054596 C2470.36993794 296.58949271 2469.67689332 296.65843946 2468.96284735 296.7294755 C2466.92380985 297.01050072 2464.98628908 297.46529803 2463 298 C2469.17004384 305.22026407 2475.59038358 311.8815317 2482.796875 318.0703125 C2484.35287284 319.43319004 2485.88190738 320.82714842 2487.390625 322.2421875 C2500.82728248 334.8340252 2518.04868114 350.40036321 2537.328125 351.359375 C2552.21731368 352.19449872 2566.95431155 353.57772032 2581.75 355.4375 C2582.58309692 355.54082642 2583.41619385 355.64415283 2584.27453613 355.75061035 C2595.58435728 357.16162023 2606.7950444 358.9145833 2618 361 C2617.06578421 373.8342474 2615.9858251 386.63579544 2614.52734375 399.421875 C2611.55783069 425.81136731 2609.66104162 451.64375628 2609.69165039 478.22994995 C2609.64828184 504.25303412 2607.13390842 529.94936647 2604.4375 555.8125 C2604.33033535 556.84048958 2604.2231707 557.86847916 2604.11275864 558.92761993 C2602.7851391 571.62319386 2601.41345174 584.31370557 2600 597 C2596.44195112 598.24114411 2594.15839735 597.74601217 2590.57202148 596.73095703 C2589.47387115 596.42477951 2588.37572083 596.11860199 2587.24429321 595.80314636 C2586.04863739 595.45818619 2584.85298157 595.11322601 2583.62109375 594.7578125 C2582.36517426 594.40258011 2581.10925476 594.04734772 2579.8152771 593.68135071 C2576.39502262 592.71180673 2572.97911225 591.72773365 2569.5642128 590.7395134 C2567.44121248 590.12607272 2565.31713125 589.51651915 2563.19271851 588.9079895 C2538.09850019 581.71168182 2513.29401609 573.78066761 2488.6199646 565.24543762 C2487.80025177 564.96262436 2486.98053894 564.6798111 2486.13598633 564.38842773 C2485.42888016 564.14293686 2484.72177399 563.89744598 2483.99324036 563.64451599 C2482.01129551 563.00365241 2480.02616438 562.48076822 2478 562 C2477.73445313 562.70995117 2477.46890625 563.41990234 2477.1953125 564.15136719 C2475.95080403 567.11724236 2474.48947737 569.79690613 2472.875 572.578125 C2472.24980469 573.65835938 2471.62460938 574.73859375 2470.98046875 575.8515625 C2470.32691406 576.97304687 2469.67335938 578.09453125 2469 579.25 C2468.06607422 580.86261719 2468.06607422 580.86261719 2467.11328125 582.5078125 C2461.78392681 591.69635464 2456.39216807 600.84823114 2451 610 C2450.02135986 609.93941406 2449.04271973 609.87882812 2448.03442383 609.81640625 C2391.27807616 606.42633785 2333.4094049 605.91567516 2276.67272949 609.81640625 C2273.81241538 610.01288547 2270.95164689 610.20176254 2268.09082031 610.390625 C2166.74876697 617.17992109 2066.45556423 634.20710089 1969 663 C1968.31387634 663.20262451 1967.62775269 663.40524902 1966.9208374 663.61401367 C1957.90648188 666.28464593 1948.94311861 669.10058416 1940 672 C1939.33581055 672.21444763 1938.67162109 672.42889526 1937.98730469 672.64984131 C1902.63840879 684.06544806 1867.75641613 696.43972076 1834 712 C1832.8027832 712.55042969 1831.60556641 713.10085938 1830.37207031 713.66796875 C1815.45859349 720.57319145 1801.00382786 728.0822985 1786.8137207 736.37158203 C1784.81359318 737.52913957 1782.80313878 738.66893314 1780.78588867 739.79638672 C1771.55988965 744.96858715 1762.7224454 750.61347421 1753.9375 756.5 C1753.2206604 756.97877594 1752.5038208 757.45755188 1751.76525879 757.95083618 C1735.33724725 768.94063301 1719.56983228 780.62961934 1704.63560486 793.59214783 C1703.05278889 794.95456179 1701.4561296 796.29826828 1699.85302734 797.63671875 C1691.63136 804.5307758 1683.91125902 811.80380404 1676.36547852 819.42871094 C1674.54440913 821.26827459 1672.71522496 823.09947141 1670.88476562 824.9296875 C1665.04777955 830.78410095 1659.32437255 836.66891446 1654 843 C1653.11175738 844.02177345 1652.22248348 845.04265159 1651.33203125 846.0625 C1644.15792065 854.42673437 1637.49026523 863.09684869 1631 872 C1630.50886719 872.67015137 1630.01773437 873.34030273 1629.51171875 874.03076172 C1599.06082649 915.74004785 1577.15796764 962.41498475 1563 1012 C1562.70754395 1013.01980957 1562.41508789 1014.03961914 1562.11376953 1015.09033203 C1554.12143196 1043.49444983 1551.19958132 1072.67955359 1549 1102 C1548.67 1102 1548.34 1102 1548 1102 C1547.90203125 1101.08347656 1547.8040625 1100.16695312 1547.703125 1099.22265625 C1547.26988033 1095.21413554 1546.81518915 1091.20815789 1546.359375 1087.20214844 C1546.10407546 1084.92734633 1545.854689 1082.65187716 1545.609375 1080.37597656 C1540.60503421 1034.12057663 1529.09010574 990.47928093 1510 948 C1509.43224854 946.72672852 1509.43224854 946.72672852 1508.85302734 945.42773438 C1502.23150002 930.68832103 1494.38169914 916.80375875 1486 903 C1485.47083984 902.12504883 1484.94167969 901.25009766 1484.39648438 900.34863281 C1477.94371789 889.73477486 1471.0216604 879.6372139 1463.40966797 869.82275391 C1462.06378786 868.08248011 1460.73428789 866.33107315 1459.41015625 864.57421875 C1450.83475666 853.23277807 1441.61227948 842.47375736 1432 832 C1431.50693359 831.45649902 1431.01386719 830.91299805 1430.50585938 830.35302734 C1392.86622752 788.90164317 1346.08364146 755.64339132 1296.78271484 729.47949219 C1294.02161843 728.01149392 1291.27045316 726.52602082 1288.51953125 725.0390625 C1266.09396034 713.01901965 1242.81151704 702.93944134 1219 694 C1219.33 693.01 1219.66 692.02 1220 691 C1222.32568359 689.87182617 1222.32568359 689.87182617 1225.3984375 688.79296875 C1238.67322058 683.85992151 1248.2888821 680.14018603 1255.77197266 667.89306641 C1258.05683227 664.37083948 1260.8133608 661.21908435 1263.5 658 C1268.01166887 652.48544442 1272.44624915 646.91662085 1276.82714844 641.29785156 C1279.29349301 638.14372463 1281.79042136 635.0189806 1284.328125 631.921875 C1285.18180664 630.87966797 1285.18180664 630.87966797 1286.05273438 629.81640625 C1287.13936244 628.49344596 1288.22893644 627.17289647 1289.32226562 625.85546875 C1290.90885928 623.92413874 1292.45502825 621.96473408 1294 620 C1294.84425537 618.99187256 1294.84425537 618.99187256 1295.70556641 617.96337891 C1302.0094796 609.87437986 1304.68950537 600.47894684 1307.875 590.875 C1308.50863537 589.00482035 1309.14417372 587.1352845 1309.78149414 585.26635742 C1310.78884747 582.31212923 1311.79513594 579.35759159 1312.79585266 576.40110779 C1316.5178405 565.41487654 1320.39738017 554.48531239 1324.28399658 543.55645752 C1325.42975398 540.33428385 1326.57339433 537.11136672 1327.71630859 533.88818359 C1329.47625811 528.92500017 1331.23766016 523.96233515 1333 519 C1332.39949829 519.0207106 1331.79899658 519.0414212 1331.18029785 519.0627594 C1321.18302561 519.240299 1311.28739054 518.32742726 1301.33390808 517.48786736 C1298.03894872 517.21022606 1294.74351106 516.93906575 1291.44787598 516.66957092 C1282.08690509 515.90279701 1272.72700301 515.1232619 1263.3671875 514.3425293 C1257.62204819 513.86375069 1251.87641418 513.39131597 1246.13044739 512.92257881 C1242.88383948 512.65563994 1239.63792931 512.38110063 1236.39196777 512.10643005 C1234.4091318 511.94416014 1232.42626398 511.78227868 1230.44335938 511.62084961 C1229.54151917 511.54244843 1228.63967896 511.46404724 1227.71051025 511.38327026 C1226.88093811 511.3173317 1226.05136597 511.25139313 1225.19665527 511.18345642 C1224.11941319 511.0935816 1224.11941319 511.0935816 1223.02040863 511.00189114 C1218.20157517 510.99738063 1214.87786517 513.08411407 1210.79296875 515.5 C1210.19582062 515.85171768 1209.59867249 516.20343536 1208.98342896 516.56581116 C1207.70906638 517.31733369 1206.43603004 518.07110889 1205.16421509 518.82693481 C1203.17169871 520.00937715 1201.17383355 521.18229518 1199.17456055 522.35327148 C1191.32362114 526.94581972 1191.32362114 526.94581972 1183.6640625 531.84765625 C1176.58598909 536.58651634 1169.64255367 539.26768875 1161.5078125 541.6796875 C1160.37556747 542.02152573 1159.24332245 542.36336395 1158.07676697 542.71556091 C1145.33019821 546.5430239 1132.53645472 550.2102655 1119.74017334 553.86727905 C1115.45442629 555.09253105 1111.17063786 556.32453976 1106.88720703 557.55786133 C1106.16345634 557.76621329 1105.43970566 557.97456526 1104.69402313 558.18923092 C1103.22961414 558.61080515 1101.76520781 559.03238865 1100.30080414 559.4539814 C1090.04943322 562.40497305 1079.79530945 565.34553309 1069.53385925 568.26130676 C1064.89210969 569.58350233 1060.25406736 570.91834936 1055.61691284 572.25656128 C1053.49054562 572.86716301 1051.36259313 573.47227662 1049.23294067 574.07131958 C1036.71319258 577.59557073 1025.40954549 581.75229802 1014 588 C1012.06227462 588.99941733 1010.12237713 589.99464189 1008.1796875 590.984375 C1006.41043121 591.90427722 1004.64220671 592.82616649 1002.875 593.75 C1001.90836426 594.2545874 1000.94172852 594.7591748 999.94580078 595.27905273 C994.1400272 598.32140625 988.36362993 601.41246938 982.6159668 604.56323242 C980.79070083 605.56162543 978.96141576 606.55270603 977.12817383 607.53637695 C972.57070648 609.98952116 968.12738509 612.52289374 963.76171875 615.3046875 C951.0476754 623.15769001 943.13994899 623.65153811 928.75341797 620.69091797 C921.77715689 619.40674867 914.72771052 618.67074804 907.68191528 617.87319946 C904.91287426 617.55971208 902.14479037 617.23858846 899.37670898 616.91674805 C867.03176012 613.19237483 834.52994714 610.43689007 802 609 C801.07270081 608.95763214 800.14540161 608.91526428 799.19000244 608.87161255 C778.16682864 607.93539078 757.16479159 607.79774077 736.125 607.8125 C735.26920601 607.81276688 734.41341202 607.81303375 733.53168488 607.81330872 C705.64339581 607.82419595 677.83687758 608.15884438 650 610 C648.99308105 610.06552063 647.98616211 610.13104126 646.94873047 610.19854736 C620.63536683 611.92168673 594.41044585 614.16899613 568.22998047 617.3371582 C566.54136234 617.54135374 564.85272372 617.74537985 563.1640625 617.94921875 C562.37212494 618.04485611 561.58018738 618.14049347 560.76425171 618.23902893 C553.8553601 619.05479629 546.94605585 619.59758907 540 620 C543.46621774 616.3611109 546.97894265 613.44475915 551.125 610.5625 C552.3733898 609.68631033 553.62072822 608.80862134 554.8671875 607.9296875 C555.53331055 607.46014648 556.19943359 606.99060547 556.88574219 606.50683594 C560.70916339 603.7818757 564.47665058 600.98116329 568.25 598.1875 C574.47292903 593.58667034 580.71853445 589.02058439 587 584.5 C593.19658129 580.03984573 599.35983975 575.53750831 605.5 571 C612.3770356 565.91794922 619.29033083 560.88997203 626.23046875 555.89453125 C631.68083838 551.96607984 637.09674016 547.99294732 642.5 544 C649.3770356 538.91794922 656.29033083 533.88997203 663.23046875 528.89453125 C668.68083838 524.96607984 674.09674016 520.99294732 679.5 517 C686.37408817 511.92012734 693.2841201 506.89387885 700.22167969 501.90112305 C705.75977213 497.90993979 711.26057907 493.87030459 716.75 489.8125 C724.44269915 484.12628367 732.19263773 478.52756154 740 473 C725.75493698 479.54598786 711.83158246 486.67210746 697.93211365 493.91453552 C691.16154528 497.44098872 684.37419388 500.9346259 677.58584595 504.42669678 C674.1150491 506.21264719 670.64551229 508.0010426 667.17578125 509.7890625 C663.13178545 511.87289168 659.08730707 513.95576105 655.04052734 516.03417969 C646.67923495 520.3287354 638.33235697 524.64947734 630 529 C629.0212793 529.50756836 628.04255859 530.01513672 627.03417969 530.53808594 C616.44311606 536.05403338 606.8396916 541.87864945 597.70068359 549.57763672 C594.67755781 552.10602185 591.58283642 554.54511218 588.5 557 C587.24466233 558.0063491 585.98945343 559.01285886 584.734375 560.01953125 C581.09210398 562.93353796 577.42351923 565.81305444 573.75 568.6875 C568.77169563 572.58673591 563.84932897 576.54588954 558.96484375 580.5625 C555.38016172 583.50959036 551.78637072 586.44525961 548.1875 589.375 C547.50461914 589.93098877 546.82173828 590.48697754 546.11816406 591.05981445 C541.74263142 594.61222198 537.324609 598.10358002 532.875 601.5625 C527.50814032 605.73511527 522.31694113 610.07767388 517.23193359 614.59008789 C515.51467887 616.09420442 513.7587625 617.54465691 512 619 C510.88322876 619.99773437 510.88322876 619.99773437 509.74389648 621.015625 C501.57609688 627.75144303 493.58341455 629.05421692 483.4375 630.625 C480.97155628 631.0406714 478.50767503 631.46727361 476.04380798 631.89506531 C474.39856597 632.18051611 472.75277996 632.46284958 471.10646057 632.74201965 C462.49587675 634.21519503 454.03557581 636.18252666 445.54272461 638.22314453 C444.5656958 638.45759277 443.58866699 638.69204102 442.58203125 638.93359375 C441.73874268 639.14040771 440.8954541 639.34722168 440.02661133 639.56030273 C438 640 438 640 436 640 C437.22491628 634.03626619 438.78969133 628.2985118 440.61401367 622.4921875 C455.73215576 574.00898852 463.12241248 521.7636554 462 471 C461.98743164 470.24154785 461.97486328 469.4830957 461.96191406 468.70166016 C461.08133805 422.79489665 452.87031986 375.99787203 434 334 C433.61618164 333.13358887 433.23236328 332.26717773 432.83691406 331.37451172 C423.9303977 311.414571 412.82485954 292.68648183 400 275 C399.53271484 274.35401855 399.06542969 273.70803711 398.58398438 273.04248047 C387.62819483 257.98382927 375.85472046 243.71715044 363.03125 230.21484375 C360.80163981 227.86607867 358.65040136 225.47671972 356.5625 223 C349.10382378 214.34260796 340.73785888 206.09608217 332.0078125 198.7265625 C329.87019614 196.88837879 327.80302621 194.9817423 325.73730469 193.06347656 C320.58110826 188.27766853 315.31272392 183.71196581 309.828125 179.30078125 C307.32178972 177.26178749 304.8640174 175.17609693 302.41674805 173.06689453 C295.87617463 167.44305649 289.09300801 162.22694629 282.16015625 157.09765625 C279.37167834 155.03267531 276.61119795 152.93733932 273.87109375 150.80859375 C263.52436263 142.77110844 252.88079541 135.29484589 242 128 C240.55842021 127.02629855 239.11700959 126.05234658 237.67578125 125.078125 C217.85489218 111.7256282 197.69082036 98.96080646 177 87 C176.13987305 86.50048828 175.27974609 86.00097656 174.39355469 85.48632812 C151.63905702 72.28511447 128.40798389 59.99695343 105 48 C104.07574219 47.52353027 103.15148437 47.04706055 102.19921875 46.55615234 C69.11466236 29.52985934 34.66189268 14.4977488 0 1 C0 0.67 0 0.34 0 0 Z " fill="#231F20" transform="translate(407,1587)"/>
<path d="M0 0 C2.53685014 -0.00323285 5.07370012 -0.00659822 7.61054993 -0.01008606 C12.89718932 -0.01601707 18.18381706 -0.01797651 23.47045898 -0.01733398 C28.7781083 -0.01680507 34.08567366 -0.02411805 39.39331055 -0.0378418 C73.24824764 -0.12391961 106.99284986 0.310396 140.80078125 2.16796875 C141.53353146 2.20797375 142.26628166 2.24797874 143.02123642 2.28919601 C151.70431794 2.76762307 160.37815952 3.34169092 169.05078125 3.98046875 C170.21527802 4.06444916 171.37977478 4.14842957 172.57955933 4.23495483 C277.10170216 11.80065213 380.91911992 27.30070209 897.28833008 200.89770508 C902.99789972 203.78275916 908.73613135 206.56446601 914.55078125 209.23046875 C921.91241217 212.62462473 928.99248966 216.47330805 936.0847168 220.39477539 C943.11645426 224.27642033 950.22038187 227.99552832 957.36328125 231.66796875 C967.7994419 237.05243888 978.00621704 242.75922489 988.16308594 248.64990234 C991.81838805 250.75362953 995.49924636 252.81064556 999.17919922 254.87084961 C1012.55148902 262.36647167 1025.69356536 270.21993205 1038.80078125 278.16796875 C1040.80856555 279.38155707 1042.81637763 280.59509944 1044.82421875 281.80859375 C1065.77222898 294.49098913 1086.35228025 307.69784871 1106.80078125 321.16796875 C1107.73744629 321.78462402 1108.67411133 322.4012793 1109.63916016 323.03662109 C1122.572724 331.56556567 1135.32888293 340.33382389 1148.01806641 349.22167969 C1150.68518753 351.08712008 1153.35728434 352.94516968 1156.03125 354.80078125 C1166.62536507 362.1634867 1177.06413946 369.71099743 1187.41992188 377.40478516 C1189.84797623 379.20291975 1192.28398293 380.98973593 1194.72265625 382.7734375 C1202.44170827 388.42322789 1210.11171015 394.11072169 1217.6015625 400.06201172 C1221.35191449 403.04080692 1225.14328935 405.95815117 1228.96118164 408.84985352 C1236.32505004 414.42935176 1243.52504632 420.16674915 1250.62939453 426.07299805 C1255.02562169 429.72362752 1259.47313347 433.29080227 1263.98828125 436.79296875 C1269.38438816 440.98651469 1274.59827101 445.35815917 1279.76464844 449.83081055 C1283.21162537 452.81377136 1286.69407293 455.73759604 1290.23828125 458.60546875 C1299.95015833 466.49815942 1309.33675867 474.78952984 1318.609375 483.19140625 C1320.65616921 485.03753436 1322.72209682 486.85790159 1324.80078125 488.66796875 C1328.70007451 492.06412739 1332.53707225 495.52698718 1336.375 498.9921875 C1338.43780913 500.84240438 1340.51790495 502.66741684 1342.61328125 504.48046875 C1352.22220168 512.85944736 1361.45677752 521.68365643 1370.76220703 530.39648438 C1373.2049726 532.68160738 1375.65512874 534.95790118 1378.11767578 537.22167969 C1390.34768854 548.51260749 1402.08402272 560.29769445 1413.84008789 572.0769043 C1416.79492341 575.03748953 1419.75430167 577.99348715 1422.71498203 580.94822598 C1425.02722384 583.25683716 1427.33705802 585.56784549 1429.64619255 587.87956429 C1430.73656103 588.97059235 1431.82765191 590.06089901 1432.91952705 591.15041924 C1438.26979158 596.49165097 1443.55616288 601.84697612 1448.46006775 607.60707092 C1450.1428912 609.56626315 1451.94341873 611.37465322 1453.80078125 613.16796875 C1456.35600707 615.63508334 1458.72526008 618.20525046 1461.05078125 620.88671875 C1464.85021863 625.26133748 1468.80875392 629.46945725 1472.80078125 633.66796875 C1477.38290563 638.48709956 1481.88500701 643.34895101 1486.2421875 648.37304688 C1488.2323064 650.66492566 1490.2635764 652.9179216 1492.30078125 655.16796875 C1503.15553007 667.20853046 1513.63814128 679.57758659 1524.09375 691.96484375 C1525.88268988 694.08401974 1527.67708318 696.19836098 1529.4765625 698.30859375 C1539.1393752 709.65288665 1548.53538605 721.21025172 1557.70922852 732.95336914 C1560.51984532 736.5491483 1563.36258372 740.11652776 1566.2277832 743.66894531 C1571.33912795 750.01041651 1576.30283722 756.44011655 1581.15991211 762.97827148 C1584.96135711 768.0844054 1588.86756716 773.10044037 1592.80078125 778.10546875 C1597.81934273 784.51053971 1602.61540217 791.02964221 1607.26391602 797.70727539 C1610.99401137 803.05877635 1614.84438532 808.30974378 1618.73828125 813.54296875 C1623.9623231 820.58282339 1628.99691829 827.72724152 1633.91259766 834.98535156 C1637.18199074 839.81202117 1640.50572396 844.59319516 1643.87988281 849.34716797 C1651.30332851 859.82154529 1658.24915334 870.56242929 1665.125 881.40234375 C1667.97442998 885.89025022 1670.88259231 890.32905405 1673.86328125 894.73046875 C1696.76826609 928.72786554 1717.34220161 964.56578618 1737.24462891 1000.37158203 C1738.61635133 1002.83655043 1739.99390166 1005.29809002 1741.375 1007.7578125 C1756.64451053 1035.00181748 1771.46245282 1062.61421953 1784.80078125 1090.85546875 C1787.01607281 1095.53957298 1789.27279918 1100.20167477 1791.55078125 1104.85546875 C1800.36370314 1122.87088388 1808.87661437 1140.98920538 1816.98809814 1159.331604 C1817.77245224 1161.1039556 1818.55975526 1162.87500124 1819.34716797 1164.64599609 C1836.2379183 1202.71972165 1851.65915711 1241.42219621 1865.85797119 1280.57458496 C1866.79548931 1283.15341223 1867.73920731 1285.7298826 1868.68505859 1288.30566406 C1904.57411623 1386.09795432 1931.40086743 1487.47252013 1955.80078125 1619.16796875 C1955.94926514 1620.04038208 1956.09774902 1620.91279541 1956.25073242 1621.81164551 C1969.81030555 1701.71023587 1977.80414837 1782.25450769 1981.80078125 1863.16796875 C1981.83709656 1863.90090149 1981.87341187 1864.63383423 1981.91082764 1865.38897705 C1982.31512622 1873.64653902 1982.59527315 1881.90323831 1982.80078125 1890.16796875 C1982.82162781 1890.99149841 1982.84247437 1891.81502808 1982.86395264 1892.66351318 C1984.10558258 1941.93529056 1984.10558258 1941.93529056 1983.80078125 1963.16796875 C1983.78982422 1963.93661255 1983.77886719 1964.70525635 1983.76757812 1965.49719238 C1982.27751754 2067.28695642 1974.1956654 2168.66091803 1957.80078125 2269.16796875 C1957.59835815 2270.41184357 1957.59835815 2270.41184357 1957.3918457 2271.68084717 C1941.45355029 2369.27989536 1917.50210077 2465.5047543 1878.55285645 2583.96777344 C1878.05200765 2585.43300613 1877.55192449 2586.89850077 1877.0526123 2588.36425781 C1850.6788523 2665.77887397 1818.965495 2741.65805473 1782.07104492 2814.65551758 C1779.18599084 2820.36508722 1776.40428399 2826.10331885 1773.73828125 2831.91796875 C1770.34412527 2839.27959967 1766.49544195 2846.35967716 1762.57397461 2853.4519043 C1758.69232967 2860.48364176 1754.97322168 2867.58756937 1751.30078125 2874.73046875 C1745.91631112 2885.1666294 1740.20952511 2895.37340454 1734.31884766 2905.53027344 C1732.21512047 2909.18557555 1730.15810444 2912.86643386 1728.09790039 2916.54638672 C1720.60227833 2929.91867652 1712.74881795 2943.06075286 1704.80078125 2956.16796875 C1703.58719293 2958.17575305 1702.37365056 2960.18356513 1701.16015625 2962.19140625 C1688.47776087 2983.13941648 1675.27090129 3003.71946775 1661.80078125 3024.16796875 C1660.87579834 3025.57296631 1660.87579834 3025.57296631 1659.93212891 3027.00634766 C1651.40318433 3039.9399115 1642.63492611 3052.69607043 1633.74707031 3065.38525391 C1631.88162992 3068.05237503 1630.02358032 3070.72447184 1628.16796875 3073.3984375 C1620.8052633 3083.99255257 1613.25775257 3094.43132696 1605.56396484 3104.78710938 C1603.76583025 3107.21516373 1601.97901407 3109.65117043 1600.1953125 3112.08984375 C1594.54552211 3119.80889577 1588.85802831 3127.47889765 1582.90673828 3134.96875 C1579.92794308 3138.71910199 1577.01059883 3142.51047685 1574.11889648 3146.32836914 C1568.53939824 3153.69223754 1562.80200085 3160.89223382 1556.89575195 3167.99658203 C1553.24512248 3172.39280919 1549.67794773 3176.84032097 1546.17578125 3181.35546875 C1541.98223531 3186.75157566 1537.61059083 3191.96545851 1533.13793945 3197.13183594 C1530.15497864 3200.57881287 1527.23115396 3204.06126043 1524.36328125 3207.60546875 C1516.47059058 3217.31734583 1508.17922016 3226.70394617 1499.77734375 3235.9765625 C1497.93121564 3238.02335671 1496.11084841 3240.08928432 1494.30078125 3242.16796875 C1490.90462261 3246.06726201 1487.44176282 3249.90425975 1483.9765625 3253.7421875 C1482.12634562 3255.80499663 1480.30133316 3257.88509245 1478.48828125 3259.98046875 C1470.10930264 3269.58938918 1461.28509357 3278.82396502 1452.57226562 3288.12939453 C1450.28714262 3290.5721601 1448.01084882 3293.02231624 1445.74707031 3295.48486328 C1434.45614251 3307.71487604 1422.67105555 3319.45121022 1410.8918457 3331.20727539 C1407.93126047 3334.16211091 1404.97526285 3337.12148917 1402.02052402 3340.08216953 C1399.71191284 3342.39441134 1397.40090451 3344.70424552 1395.08918571 3347.01338005 C1393.99815765 3348.10374853 1392.90785099 3349.19483941 1391.81833076 3350.28671455 C1386.47709903 3355.63697908 1381.12177388 3360.92335038 1375.36167908 3365.82725525 C1373.40248685 3367.5100787 1371.59409678 3369.31060623 1369.80078125 3371.16796875 C1367.33366666 3373.72319457 1364.76349954 3376.09244758 1362.08203125 3378.41796875 C1357.70741252 3382.21740613 1353.49929275 3386.17594142 1349.30078125 3390.16796875 C1344.48165044 3394.75009313 1339.61979899 3399.25219451 1334.59570312 3403.609375 C1332.30382434 3405.5994939 1330.0508284 3407.6307639 1327.80078125 3409.66796875 C1315.76021954 3420.52271757 1303.39116341 3431.00532878 1291.00390625 3441.4609375 C1288.88473026 3443.24987738 1286.77038902 3445.04427068 1284.66015625 3446.84375 C1273.31586335 3456.5065627 1261.75849828 3465.90257355 1250.01538086 3475.07641602 C1246.4196017 3477.88703282 1242.85222224 3480.72977122 1239.29980469 3483.5949707 C1232.95833349 3488.70631545 1226.52863345 3493.67002472 1219.99047852 3498.52709961 C1214.8843446 3502.32854461 1209.86830963 3506.23475466 1204.86328125 3510.16796875 C1198.45821029 3515.18653023 1191.93910779 3519.98258967 1185.26147461 3524.63110352 C1179.90997109 3528.36120065 1174.65906674 3532.21165196 1169.42578125 3536.10546875 C1161.67908079 3541.85243773 1153.7900464 3547.34908443 1145.8046875 3552.7578125 C1142.26892385 3555.15604996 1138.76052685 3557.58947479 1135.265625 3560.046875 C1123.94966594 3568.00154374 1112.50186799 3575.6440167 1100.79296875 3583.0078125 C1096.61964639 3585.63554704 1092.50922956 3588.34085534 1088.42578125 3591.10546875 C1054.36219924 3614.05012077 1018.47073842 3634.67171703 982.59716797 3654.61181641 C980.13219957 3655.98353883 977.67065998 3657.36108916 975.2109375 3658.7421875 C947.96693252 3674.01169803 920.35453047 3688.82964032 892.11328125 3702.16796875 C887.42917702 3704.38326031 882.76707523 3706.63998668 878.11328125 3708.91796875 C860.09786612 3717.73089064 841.97954462 3726.24380187 823.637146 3734.35528564 C821.8647944 3735.13963974 820.09374876 3735.92694276 818.32275391 3736.71435547 C725.90123251 3777.71556615 629.81174383 3810.84709891 136.67578125 3898.35546875 C135.65550842 3898.41086319 135.65550842 3898.41086319 134.61462402 3898.46737671 C129.67792852 3898.73035004 124.73974783 3898.95307918 119.80078125 3899.16796875 C118.87374075 3899.20849837 117.94670025 3899.249028 116.99156761 3899.29078579 C99.85581625 3900.02343995 82.75190488 3900.33064073 65.6015625 3900.3359375 C63.06471236 3900.33917035 60.52786238 3900.34253572 57.99101257 3900.34602356 C52.70437318 3900.35195457 47.41774544 3900.35391401 42.13110352 3900.35327148 C36.8234542 3900.35274257 31.51588884 3900.36005555 26.20825195 3900.3737793 C-7.64668514 3900.45985711 -41.39128736 3900.0255415 -75.19921875 3898.16796875 C-75.93196896 3898.12796375 -76.66471916 3898.08795876 -77.41967392 3898.04674149 C-86.10275544 3897.56831443 -94.77659702 3896.99424658 -103.44921875 3896.35546875 C-104.61371552 3896.27148834 -105.77821228 3896.18750793 -106.97799683 3896.10098267 C-211.50013966 3888.53528537 -315.31755742 3873.03523541 -838.93286133 3695.81665039 C-841.92087076 3694.30846385 -844.91371714 3692.81057308 -847.90885925 3691.31663513 C-869.97523195 3680.30945842 -891.91996035 3669.13491499 -913.29296875 3656.82470703 C-916.53910823 3654.97421119 -919.80357606 3653.15823391 -923.07421875 3651.3515625 C-923.6664624 3651.02420609 -924.25870605 3650.69684967 -924.86889648 3650.35957336 C-927.72856188 3648.77988825 -930.58988048 3647.2033217 -933.453125 3645.63012695 C-941.17888126 3641.36140963 -948.75485814 3636.88018892 -956.30493164 3632.3114624 C-959.38246976 3630.45369476 -962.47096152 3628.61436054 -965.55859375 3626.7734375 C-978.80221011 3618.86481924 -991.99063684 3610.89622722 -1004.98388672 3602.58007812 C-1007.33184461 3601.08342963 -1009.68816645 3599.6007368 -1012.046875 3598.12109375 C-1021.1707862 3592.39585988 -1030.20557748 3586.56555854 -1039.13964844 3580.54882812 C-1041.41661795 3579.02221129 -1043.70177407 3577.50838653 -1045.98828125 3575.99609375 C-1058.25397337 3567.87495742 -1070.36777085 3559.55352439 -1082.41650391 3551.11425781 C-1085.08362503 3549.24881742 -1087.75572184 3547.39076782 -1090.4296875 3545.53515625 C-1101.02380257 3538.1724508 -1111.46257696 3530.62494007 -1121.81835938 3522.93115234 C-1124.24641373 3521.13301775 -1126.68242043 3519.34620157 -1129.12109375 3517.5625 C-1136.84014577 3511.91270961 -1144.51014765 3506.22521581 -1152 3500.27392578 C-1155.75035199 3497.29513058 -1159.54172685 3494.37778633 -1163.35961914 3491.48608398 C-1170.72348754 3485.90658574 -1177.92348382 3480.16918835 -1185.02783203 3474.26293945 C-1189.42405919 3470.61230998 -1193.87157097 3467.04513523 -1198.38671875 3463.54296875 C-1203.78282566 3459.34942281 -1208.99670851 3454.97777833 -1214.16308594 3450.50512695 C-1217.61006287 3447.52216614 -1221.09251043 3444.59834146 -1224.63671875 3441.73046875 C-1234.34859583 3433.83777808 -1243.73519617 3425.54640766 -1253.0078125 3417.14453125 C-1255.05460671 3415.29840314 -1257.12053432 3413.47803591 -1259.19921875 3411.66796875 C-1263.09851201 3408.27181011 -1266.93550975 3404.80895032 -1270.7734375 3401.34375 C-1272.83624663 3399.49353312 -1274.91634245 3397.66852066 -1277.01171875 3395.85546875 C-1282.85879036 3390.75682231 -1288.51860713 3385.45026852 -1294.19921875 3380.16796875 C-1295.079729 3379.3493335 -1295.079729 3379.3493335 -1295.97802734 3378.51416016 C-1299.02065111 3375.68336987 -1302.05906969 3372.84817696 -1305.0925293 3370.00756836 C-1307.64662733 3367.61688835 -1310.20683598 3365.23316213 -1312.77392578 3362.85644531 C-1324.95360977 3351.53536453 -1336.71518959 3339.8065801 -1348.45947266 3328.03808594 C-1351.28535972 3325.20643974 -1354.11580184 3322.37939543 -1356.94753456 3319.5535965 C-1359.16283922 3317.34192301 -1361.37573543 3315.12785202 -1363.58793259 3312.91307068 C-1364.6308529 3311.8694914 -1365.67449386 3310.82663172 -1366.71892166 3309.78456116 C-1371.92350867 3304.58917325 -1377.04908666 3299.36859273 -1381.82052612 3293.7668457 C-1383.67223353 3291.61941107 -1385.66485031 3289.64160978 -1387.69921875 3287.66796875 C-1390.42857844 3285.02008248 -1392.9905704 3282.28897398 -1395.48046875 3279.41796875 C-1399.268194 3275.05252385 -1403.21726177 3270.85588902 -1407.19921875 3266.66796875 C-1411.78134313 3261.84883794 -1416.28344451 3256.98698649 -1420.640625 3251.96289062 C-1422.6307439 3249.67101184 -1424.6620139 3247.4180159 -1426.69921875 3245.16796875 C-1437.55396757 3233.12740704 -1448.03657878 3220.75835091 -1458.4921875 3208.37109375 C-1460.28112738 3206.25191776 -1462.07552068 3204.13757652 -1463.875 3202.02734375 C-1473.5378127 3190.68305085 -1482.93382355 3179.12568578 -1492.10766602 3167.38256836 C-1494.91828282 3163.7867892 -1497.76102122 3160.21940974 -1500.6262207 3156.66699219 C-1505.73756545 3150.32552099 -1510.70127472 3143.89582095 -1515.55834961 3137.35766602 C-1519.35979461 3132.2515321 -1523.26600466 3127.23549713 -1527.19921875 3122.23046875 C-1532.21778023 3115.82539779 -1537.01383967 3109.30629529 -1541.66235352 3102.62866211 C-1545.39245065 3097.27715859 -1549.24290196 3092.02625424 -1553.13671875 3086.79296875 C-1558.88368773 3079.04626829 -1564.38033443 3071.1572339 -1569.7890625 3063.171875 C-1572.18729996 3059.63611135 -1574.62072479 3056.12771435 -1577.078125 3052.6328125 C-1585.03279374 3041.31685344 -1592.6752667 3029.86905549 -1600.0390625 3018.16015625 C-1602.66679704 3013.98683389 -1605.37210534 3009.87641706 -1608.13671875 3005.79296875 C-1631.08137077 2971.72938674 -1651.70296703 2935.83792592 -1671.64306641 2899.96435547 C-1673.01478883 2897.49938707 -1674.39233916 2895.03784748 -1675.7734375 2892.578125 C-1683.44881744 2878.88330087 -1690.83360002 2865.03104528 -1698.19921875 2851.16796875 C-1698.74932617 2850.13381836 -1699.29943359 2849.09966797 -1699.86621094 2848.03417969 C-1706.22928253 2836.04572676 -1712.29786829 2823.95390734 -1718.09765625 2811.68359375 C-1720.42016277 2806.77966824 -1722.78780906 2801.89957816 -1725.17578125 2797.02734375 C-1734.25466239 2778.49310412 -1743.05516898 2759.86958644 -1751.39367676 2740.99005127 C-1752.17389031 2739.22526 -1752.95749428 2737.46196885 -1753.74121094 2735.69873047 C-1794.74498167 2643.27480181 -1827.87752512 2547.18204869 -1915.38671875 2054.04296875 C-1915.44211319 2053.02269592 -1915.44211319 2053.02269592 -1915.49862671 2051.98181152 C-1915.76160004 2047.04511602 -1915.98432918 2042.10693533 -1916.19921875 2037.16796875 C-1916.23974837 2036.24092825 -1916.280278 2035.31388775 -1916.32203579 2034.35875511 C-1917.05468995 2017.22300375 -1917.36189073 2000.11909238 -1917.3671875 1982.96875 C-1917.37042035 1980.43189986 -1917.37378572 1977.89504988 -1917.37727356 1975.35820007 C-1917.38320457 1970.07156068 -1917.38516401 1964.78493294 -1917.38452148 1959.49829102 C-1917.38399257 1954.1906417 -1917.39130555 1948.88307634 -1917.4050293 1943.57543945 C-1917.49110711 1909.72050236 -1917.0567915 1875.97590014 -1915.19921875 1842.16796875 C-1915.13921125 1841.06884344 -1915.13921125 1841.06884344 -1915.07799149 1839.94751358 C-1914.59956443 1831.26443206 -1914.02549658 1822.59059048 -1913.38671875 1813.91796875 C-1913.30273834 1812.75347198 -1913.21875793 1811.58897522 -1913.13223267 1810.38919067 C-1905.56653537 1705.86704784 -1890.06648541 1602.04963008 -1712.84790039 1078.43432617 C-1711.33971385 1075.44631674 -1709.84182308 1072.45347036 -1708.34788513 1069.45832825 C-1697.34070842 1047.39195555 -1686.16616499 1025.44722715 -1673.85595703 1004.07421875 C-1672.00546119 1000.82807927 -1670.18948391 997.56361144 -1668.3828125 994.29296875 C-1668.05545609 993.7007251 -1667.72809967 993.10848145 -1667.39082336 992.49829102 C-1665.81113825 989.63862562 -1664.2345717 986.77730702 -1662.66137695 983.9140625 C-1658.39265963 976.18830624 -1653.91143892 968.61232936 -1649.3427124 961.06225586 C-1647.48494476 957.98471774 -1645.64561054 954.89622598 -1643.8046875 951.80859375 C-1635.89606924 938.56497739 -1627.92747722 925.37655066 -1619.61132812 912.38330078 C-1618.11467963 910.03534289 -1616.6319868 907.67902105 -1615.15234375 905.3203125 C-1609.42710988 896.1964013 -1603.59680854 887.16161002 -1597.58007812 878.22753906 C-1596.05346129 875.95056955 -1594.53963653 873.66541343 -1593.02734375 871.37890625 C-1584.90620742 859.11321413 -1576.58477439 846.99941665 -1568.14550781 834.95068359 C-1566.28006742 832.28356247 -1564.42201782 829.61146566 -1562.56640625 826.9375 C-1555.2037008 816.34338493 -1547.65619007 805.90461054 -1539.96240234 795.54882812 C-1538.16426775 793.12077377 -1536.37745157 790.68476707 -1534.59375 788.24609375 C-1528.94395961 780.52704173 -1523.25646581 772.85703985 -1517.30517578 765.3671875 C-1514.32638058 761.61683551 -1511.40903633 757.82546065 -1508.51733398 754.00756836 C-1502.93783574 746.64369996 -1497.20043835 739.44370368 -1491.29418945 732.33935547 C-1487.64355998 727.94312831 -1484.07638523 723.49561653 -1480.57421875 718.98046875 C-1476.38067281 713.58436184 -1472.00902833 708.37047899 -1467.53637695 703.20410156 C-1464.55341614 699.75712463 -1461.62959146 696.27467707 -1458.76171875 692.73046875 C-1450.86902808 683.01859167 -1442.57765766 673.63199133 -1434.17578125 664.359375 C-1432.32965314 662.31258079 -1430.50928591 660.24665318 -1428.69921875 658.16796875 C-1425.30306011 654.26867549 -1421.84020032 650.43167775 -1418.375 646.59375 C-1416.52478312 644.53094087 -1414.69977066 642.45084505 -1412.88671875 640.35546875 C-1407.78807231 634.50839714 -1402.48151852 628.84858037 -1397.19921875 623.16796875 C-1396.3805835 622.2874585 -1396.3805835 622.2874585 -1395.54541016 621.38916016 C-1392.71461987 618.34653639 -1389.87942696 615.30811781 -1387.03881836 612.2746582 C-1384.64813835 609.72056017 -1382.26441213 607.16035152 -1379.88769531 604.59326172 C-1368.56661453 592.41357773 -1356.8378301 580.65199791 -1345.06933594 568.90771484 C-1342.23768974 566.08182778 -1339.41064543 563.25138566 -1336.5848465 560.41965294 C-1334.37317301 558.20434828 -1332.15910202 555.99145207 -1329.94432068 553.77925491 C-1328.9007414 552.7363346 -1327.85788172 551.69269364 -1326.81581116 550.64826584 C-1321.62042325 545.44367883 -1316.39984273 540.31810084 -1310.7980957 535.54666138 C-1308.65066107 533.69495397 -1306.67285978 531.70233719 -1304.69921875 529.66796875 C-1302.05133248 526.93860906 -1299.32022398 524.3766171 -1296.44921875 521.88671875 C-1292.08377385 518.0989935 -1287.88713902 514.14992573 -1283.69921875 510.16796875 C-1278.88008794 505.58584437 -1274.01823649 501.08374299 -1268.99414062 496.7265625 C-1266.70226184 494.7364436 -1264.4492659 492.7051736 -1262.19921875 490.66796875 C-1250.15865704 479.81321993 -1237.78960091 469.33060872 -1225.40234375 458.875 C-1223.28316776 457.08606012 -1221.16882652 455.29166682 -1219.05859375 453.4921875 C-1207.71430085 443.8293748 -1196.15693578 434.43336395 -1184.41381836 425.25952148 C-1180.8180392 422.44890468 -1177.25065974 419.60616628 -1173.69824219 416.7409668 C-1167.35677099 411.62962205 -1160.92707095 406.66591278 -1154.38891602 401.80883789 C-1149.2827821 398.00739289 -1144.26674713 394.10118284 -1139.26171875 390.16796875 C-1132.85664779 385.14940727 -1126.33754529 380.35334783 -1119.65991211 375.70483398 C-1114.30840859 371.97473685 -1109.05750424 368.12428554 -1103.82421875 364.23046875 C-1096.07751829 358.48349977 -1088.1884839 352.98685307 -1080.203125 347.578125 C-1076.66736135 345.17988754 -1073.15896435 342.74646271 -1069.6640625 340.2890625 C-1058.34810344 332.33439376 -1046.90030549 324.6919208 -1035.19140625 317.328125 C-1031.01808389 314.70039046 -1026.90766706 311.99508216 -1022.82421875 309.23046875 C-988.76063674 286.28581673 -952.86917592 265.66422047 -916.99560547 245.72412109 C-914.53063707 244.35239867 -912.06909748 242.97484834 -909.609375 241.59375 C-882.36537002 226.32423947 -854.75296797 211.50629718 -826.51171875 198.16796875 C-821.82761452 195.95267719 -817.16551273 193.69595082 -812.51171875 191.41796875 C-794.49630362 182.60504686 -776.37798212 174.09213563 -758.0355835 165.98065186 C-756.2632319 165.19629776 -754.49218626 164.40899474 -752.72119141 163.62158203 C-660.29967001 122.62037135 -564.21018133 89.48883859 -71.07421875 1.98046875 C-70.39403687 1.94353912 -69.71385498 1.9066095 -69.01306152 1.86856079 C-64.07636602 1.60558746 -59.13818533 1.38285832 -54.19921875 1.16796875 C-53.27217825 1.12743913 -52.34513775 1.0869095 -51.39000511 1.04515171 C-34.25425375 0.31249755 -17.15034238 0.00529677 0 0 Z M-98.57421875 71.98046875 C-100.31564651 72.10594086 -100.31564651 72.10594086 -102.09225464 72.23394775 C-202.09789394 79.46525531 -301.54507562 94.34896065 -629.19921875 187.16796875 C-630.39659668 187.62026855 -631.59397461 188.07256836 -632.82763672 188.53857422 C-678.70272492 205.92656647 -723.85734964 225.17844647 -768.19921875 246.16796875 C-769.13185547 246.60608887 -770.06449219 247.04420898 -771.02539062 247.49560547 C-785.52282173 254.30960387 -799.86575122 261.43962135 -814.20324707 268.58236694 C-816.28637343 269.61991628 -818.3700909 270.65627987 -820.45446777 271.6913147 C-834.10759268 278.47598028 -847.56819247 285.54141821 -860.9145813 292.9107666 C-863.84978433 294.52596535 -866.79921827 296.11213876 -869.75390625 297.69140625 C-882.74522656 304.64784346 -895.51545643 311.92439351 -908.20800781 319.41064453 C-911.17455289 321.15347766 -914.14984261 322.88022751 -917.12890625 324.6015625 C-930.89456874 332.56210022 -944.48354808 340.78142566 -957.98974609 349.17431641 C-961.13609288 351.12875638 -964.28656351 353.07640828 -967.4375 355.0234375 C-979.71168896 362.62837516 -991.80242142 370.46460878 -1003.7734375 378.53759766 C-1006.0754368 380.08477473 -1008.3850985 381.61946519 -1010.69921875 383.1484375 C-1023.00794172 391.28531556 -1035.11499692 399.70221102 -1047.19921875 408.16796875 C-1047.98216309 408.71485352 -1048.76510742 409.26173828 -1049.57177734 409.82519531 C-1060.10073933 417.18075758 -1070.46911377 424.73824411 -1080.78759766 432.38574219 C-1083.18375536 434.15654106 -1085.58670119 435.91768047 -1087.9921875 437.67578125 C-1098.20215415 445.14541957 -1108.24183778 452.80296715 -1118.19775391 460.60742188 C-1119.99561889 462.00922146 -1121.80227419 463.39772984 -1123.6171875 464.77734375 C-1130.49099545 470.00314557 -1137.18069612 475.40884859 -1143.82568359 480.92138672 C-1148.29133023 484.61948464 -1152.80584937 488.23893543 -1157.38671875 491.79296875 C-1163.93739358 496.88762675 -1170.22183084 502.26134078 -1176.4921875 507.69482422 C-1179.23227632 510.05948325 -1181.99637863 512.3954409 -1184.76171875 514.73046875 C-1185.55932617 515.40529297 -1185.55932617 515.40529297 -1186.37304688 516.09375 C-1189.06966979 518.37424763 -1191.77148309 520.64826303 -1194.48046875 522.9140625 C-1200.96604403 528.35050061 -1207.28142429 533.9276428 -1213.4921875 539.67578125 C-1216.36004921 542.31603489 -1219.27958274 544.88589797 -1222.22265625 547.44140625 C-1233.48040746 557.27525217 -1244.4239478 567.47620423 -1255.33276367 577.6940918 C-1258.2020946 580.37957913 -1261.0773377 583.0566764 -1263.97953796 585.70674133 C-1272.01273202 593.04572161 -1279.7871935 600.60776468 -1287.47265625 608.30859375 C-1288.69269563 609.52795673 -1289.91288318 610.74717147 -1291.13320923 611.96624756 C-1293.66415922 614.4957392 -1296.19333264 617.02698955 -1298.72119141 619.55957031 C-1301.94180161 622.7859075 -1305.16692426 626.00769087 -1308.3933773 629.22818375 C-1310.903785 631.73496121 -1313.41178576 634.24413593 -1315.91908646 636.75402069 C-1317.10714233 637.94273744 -1318.2959242 639.13072909 -1319.48548508 640.31793976 C-1325.60460523 646.42760602 -1331.58894237 652.58093139 -1337.19921875 659.16796875 C-1338.44277832 660.52517833 -1339.69419663 661.87533808 -1340.9609375 663.2109375 C-1341.91794556 664.22305298 -1341.91794556 664.22305298 -1342.89428711 665.25561523 C-1343.55178955 665.94856689 -1344.20929199 666.64151855 -1344.88671875 667.35546875 C-1356.59970706 679.75226873 -1368.20074846 692.2469165 -1379.39453125 705.1171875 C-1381.42880016 707.42885672 -1383.50144185 709.70328305 -1385.57421875 711.98046875 C-1389.44882399 716.27324387 -1393.11905605 720.69833307 -1396.7578125 725.19140625 C-1399.48452774 728.51581747 -1402.27016619 731.78381757 -1405.07421875 735.04296875 C-1405.58243164 735.63432617 -1406.09064453 736.22568359 -1406.61425781 736.83496094 C-1407.64066471 738.02907713 -1408.66719429 739.22308789 -1409.69384766 740.41699219 C-1416.3707982 748.18330573 -1422.92681149 756.00608047 -1429.22167969 764.08691406 C-1431.9375102 767.57206881 -1434.69512345 771.01306426 -1437.51171875 774.41796875 C-1443.91419011 782.19731567 -1450.04002092 790.19583324 -1456.19921875 798.16796875 C-1456.64378418 798.74272949 -1457.08834961 799.31749023 -1457.54638672 799.90966797 C-1459.95184187 803.02095599 -1462.34790361 806.13932352 -1464.73828125 809.26220703 C-1465.81999563 810.67328031 -1466.90362336 812.08288729 -1467.98828125 813.49169922 C-1475.96826094 823.85812204 -1483.80618809 834.284371 -1491.2890625 845.015625 C-1494.28840687 849.31444875 -1497.36660269 853.55366809 -1500.44921875 857.79296875 C-1512.43757552 874.3340036 -1524.00706227 891.16498404 -1535.25341797 908.21826172 C-1537.01710156 910.89189097 -1538.78530751 913.56248645 -1540.55418396 916.23268127 C-1550.82842987 931.75423809 -1560.80498314 947.41840264 -1570.47119141 963.32763672 C-1572.03316467 965.8950282 -1573.60368429 968.45683026 -1575.1796875 971.015625 C-1586.5629488 989.51064895 -1597.53005783 1008.25267979 -1608.19921875 1027.16796875 C-1608.75802734 1028.15796875 -1609.31683594 1029.14796875 -1609.89257812 1030.16796875 C-1625.54785308 1057.968679 -1640.30727861 1086.19767707 -1654.59869766 1114.7215004 C-1655.49163873 1116.5029093 -1656.38598579 1118.28361323 -1657.28036499 1120.06430054 C-1669.11159012 1143.64408776 -1680.30575017 1167.50024667 -1690.88671875 1191.66796875 C-1691.25773712 1192.51449005 -1691.62875549 1193.36101135 -1692.01101685 1194.23318481 C-1733.00799732 1287.93456535 -1766.24971127 1384.83897944 -1846.88671875 1843.98046875 C-1846.94756653 1845.05193146 -1847.00841431 1846.12339417 -1847.07110596 1847.22732544 C-1847.4238042 1853.51589743 -1847.75028315 1859.80528733 -1848.05105591 1866.09655762 C-1848.14664451 1868.07810632 -1848.24573072 1870.05949087 -1848.34909058 1872.04064941 C-1849.54182337 1895.22664085 -1849.38656271 1918.44617752 -1849.38452148 1941.65576172 C-1849.38444091 1946.3745513 -1849.39128515 1951.09324235 -1849.4050293 1955.81201172 C-1849.52521141 1997.79461367 -1848.47695584 2039.66524139 -1845.38671875 2081.54296875 C-1845.26124664 2083.28439651 -1845.26124664 2083.28439651 -1845.13323975 2085.06100464 C-1837.90193219 2185.06664394 -1823.01822685 2284.51382562 -1730.19921875 2612.16796875 C-1729.74691895 2613.36534668 -1729.29461914 2614.56272461 -1728.82861328 2615.79638672 C-1711.44062103 2661.67147492 -1692.18874103 2706.82609964 -1671.19921875 2751.16796875 C-1670.76109863 2752.10060547 -1670.32297852 2753.03324219 -1669.87158203 2753.99414062 C-1663.05758363 2768.49157173 -1655.92756615 2782.83450122 -1648.78482056 2797.17199707 C-1647.74727122 2799.25512343 -1646.71090763 2801.3388409 -1645.6758728 2803.42321777 C-1638.89120722 2817.07634268 -1631.82576929 2830.53694247 -1624.4564209 2843.8833313 C-1622.84122215 2846.81853433 -1621.25504874 2849.76796827 -1619.67578125 2852.72265625 C-1612.71934404 2865.71397656 -1605.44279399 2878.48420643 -1597.95654297 2891.17675781 C-1596.21370984 2894.14330289 -1594.48695999 2897.11859261 -1592.765625 2900.09765625 C-1584.80508728 2913.86331874 -1576.58576184 2927.45229808 -1568.19287109 2940.95849609 C-1566.23843112 2944.10484288 -1564.29077922 2947.25531351 -1562.34375 2950.40625 C-1554.73881234 2962.68043896 -1546.90257872 2974.77117142 -1538.82958984 2986.7421875 C-1537.28241277 2989.0441868 -1535.74772231 2991.3538485 -1534.21875 2993.66796875 C-1526.08187194 3005.97669172 -1517.66497648 3018.08374692 -1509.19921875 3030.16796875 C-1508.65233398 3030.95091309 -1508.10544922 3031.73385742 -1507.54199219 3032.54052734 C-1500.18642992 3043.06948933 -1492.62894339 3053.43786377 -1484.98144531 3063.75634766 C-1483.21064644 3066.15250536 -1481.44950703 3068.55545119 -1479.69140625 3070.9609375 C-1472.22176793 3081.17090415 -1464.56422035 3091.21058778 -1456.75976562 3101.16650391 C-1455.35796604 3102.96436889 -1453.96945766 3104.77102419 -1452.58984375 3106.5859375 C-1447.36404193 3113.45974545 -1441.95833891 3120.14944612 -1436.44580078 3126.79443359 C-1432.74770286 3131.26008023 -1429.12825207 3135.77459937 -1425.57421875 3140.35546875 C-1420.47956075 3146.90614358 -1415.10584672 3153.19058084 -1409.67236328 3159.4609375 C-1407.30770425 3162.20102632 -1404.9717466 3164.96512863 -1402.63671875 3167.73046875 C-1401.96189453 3168.52807617 -1401.96189453 3168.52807617 -1401.2734375 3169.34179688 C-1398.99293987 3172.03841979 -1396.71892447 3174.74023309 -1394.453125 3177.44921875 C-1389.01668689 3183.93479403 -1383.4395447 3190.25017429 -1377.69140625 3196.4609375 C-1375.05115261 3199.32879921 -1372.48128953 3202.24833274 -1369.92578125 3205.19140625 C-1359.03609591 3217.65787861 -1347.71185667 3229.75422078 -1336.38476562 3241.82275391 C-1334.7722531 3243.55307063 -1333.17104836 3245.29394165 -1331.57617188 3247.04052734 C-1320.39291441 3259.2340725 -1308.6464564 3270.87356044 -1296.93847656 3282.55908203 C-1293.90948544 3285.58233118 -1290.88507059 3288.61011266 -1287.86192513 3291.63920593 C-1285.50269964 3294.00206209 -1283.14107678 3296.3625106 -1280.77874374 3298.72225952 C-1279.6625957 3299.83774758 -1278.54717018 3300.95395914 -1277.43252945 3302.07095337 C-1272.05782734 3307.45453172 -1266.68623188 3312.79057404 -1260.8732605 3317.70800781 C-1259.06330871 3319.28649826 -1257.38028178 3320.95355638 -1255.69921875 3322.66796875 C-1253.38491918 3325.02127336 -1251.01563838 3327.2364455 -1248.51171875 3329.38671875 C-1243.383809 3333.84474516 -1238.47798676 3338.52586146 -1233.5546875 3343.20703125 C-1229.44321542 3347.10052766 -1225.27200295 3350.8993705 -1220.99414062 3354.609375 C-1218.70226184 3356.5994939 -1216.4492659 3358.6307639 -1214.19921875 3360.66796875 C-1206.23362183 3367.84788464 -1198.10092959 3374.8142547 -1189.90478516 3381.72851562 C-1187.70597755 3383.58425133 -1185.50951911 3385.4427514 -1183.31347656 3387.30175781 C-1182.23374446 3388.21557827 -1181.1536639 3389.12898717 -1180.07324219 3390.04199219 C-1177.37044618 3392.32647903 -1174.67259908 3394.61634545 -1171.984375 3396.91796875 C-1165.97463039 3402.05302143 -1159.8811268 3407.04473096 -1153.64306641 3411.90014648 C-1149.08980471 3415.44903067 -1144.60598754 3419.07656118 -1140.13671875 3422.73046875 C-1133.25709553 3428.34600032 -1126.26351092 3433.78776129 -1119.19921875 3439.16796875 C-1117.19855336 3440.70877182 -1115.19857222 3442.2504637 -1113.19921875 3443.79296875 C-1111.5286194 3445.07698742 -1109.85720286 3446.35993539 -1108.18554688 3447.64257812 C-1106.74068749 3448.75215057 -1105.29680726 3449.86299842 -1103.85351562 3450.97460938 C-1093.49442144 3458.94864734 -1083.07507653 3466.78033515 -1072.3515625 3474.2578125 C-1068.05273875 3477.25715687 -1063.81351941 3480.33535269 -1059.57421875 3483.41796875 C-1043.0331839 3495.40632552 -1026.20220346 3506.97581227 -1009.14892578 3518.22216797 C-1006.47529653 3519.98585156 -1003.80470105 3521.75405751 -1001.13450623 3523.52293396 C-985.61294941 3533.79717987 -969.94878486 3543.77373314 -954.03955078 3553.43994141 C-951.4721593 3555.00191467 -948.91035724 3556.57243429 -946.3515625 3558.1484375 C-927.85653855 3569.5316988 -909.11450771 3580.49880783 -890.19921875 3591.16796875 C-889.20921875 3591.72677734 -888.21921875 3592.28558594 -887.19921875 3592.86132812 C-859.3985085 3608.51660308 -831.16951043 3623.27602861 -802.6456871 3637.56744766 C-800.8642782 3638.46038873 -799.08357427 3639.35473579 -797.30288696 3640.24911499 C-773.72309974 3652.08034012 -749.86694083 3663.27450017 -725.69921875 3673.85546875 C-724.4294368 3674.41199631 -724.4294368 3674.41199631 -723.13400269 3674.97976685 C-629.43262215 3715.97674732 -532.52820806 3749.21846127 -73.38671875 3829.85546875 C-71.77952469 3829.94674042 -71.77952469 3829.94674042 -70.13986206 3830.03985596 C-63.85129007 3830.3925542 -57.56190017 3830.71903315 -51.27062988 3831.01980591 C-49.28908118 3831.11539451 -47.30769663 3831.21448072 -45.32653809 3831.31784058 C-22.14054665 3832.51057337 1.07899002 3832.35531271 24.28857422 3832.35327148 C29.0073638 3832.35319091 33.72605485 3832.36003515 38.44482422 3832.3737793 C80.42742617 3832.49396141 122.29805389 3831.44570584 164.17578125 3828.35546875 C165.33673309 3828.27182068 166.49768494 3828.18817261 167.69381714 3828.10198975 C268.89746847 3820.78405514 369.38721064 3805.52341915 694.80078125 3713.16796875 C695.99815918 3712.71566895 697.19553711 3712.26336914 698.42919922 3711.79736328 C744.30428742 3694.40937103 789.45891214 3675.15749103 833.80078125 3654.16796875 C834.73341797 3653.72984863 835.66605469 3653.29172852 836.62695312 3652.84033203 C851.12438423 3646.02633363 865.46731372 3638.89631615 879.80480957 3631.75357056 C881.88793593 3630.71602122 883.9716534 3629.67965763 886.05603027 3628.6446228 C899.70915518 3621.85995722 913.16975497 3614.79451929 926.5161438 3607.4251709 C929.45134683 3605.80997215 932.40078077 3604.22379874 935.35546875 3602.64453125 C948.34678906 3595.68809404 961.11701893 3588.41154399 973.80957031 3580.92529297 C976.77611539 3579.18245984 979.75140511 3577.45570999 982.73046875 3575.734375 C996.49613124 3567.77383728 1010.08511058 3559.55451184 1023.59130859 3551.16162109 C1026.73765538 3549.20718112 1029.88812601 3547.25952922 1033.0390625 3545.3125 C1045.31325146 3537.70756234 1057.40398392 3529.87132872 1069.375 3521.79833984 C1071.6769993 3520.25116277 1073.986661 3518.71647231 1076.30078125 3517.1875 C1088.60950422 3509.05062194 1100.71655942 3500.63372648 1112.80078125 3492.16796875 C1113.58372559 3491.62108398 1114.36666992 3491.07419922 1115.17333984 3490.51074219 C1125.70230183 3483.15517992 1136.07067627 3475.59769339 1146.38916016 3467.95019531 C1148.78531786 3466.17939644 1151.18826369 3464.41825703 1153.59375 3462.66015625 C1163.80371665 3455.19051793 1173.84340028 3447.53297035 1183.79931641 3439.72851562 C1185.59718139 3438.32671604 1187.40383669 3436.93820766 1189.21875 3435.55859375 C1196.09255795 3430.33279193 1202.78225862 3424.92708891 1209.42724609 3419.41455078 C1213.89289273 3415.71645286 1218.40741187 3412.09700207 1222.98828125 3408.54296875 C1229.53895608 3403.44831075 1235.82339334 3398.07459672 1242.09375 3392.64111328 C1244.83383882 3390.27645425 1247.59794113 3387.9404966 1250.36328125 3385.60546875 C1250.89501953 3385.15558594 1251.42675781 3384.70570313 1251.97460938 3384.2421875 C1254.67123229 3381.96168987 1257.37304559 3379.68767447 1260.08203125 3377.421875 C1266.56760653 3371.98543689 1272.88298679 3366.4082947 1279.09375 3360.66015625 C1281.96161171 3358.01990261 1284.88114524 3355.45003953 1287.82421875 3352.89453125 C1299.08196996 3343.06068533 1310.0255103 3332.85973327 1320.93432617 3322.6418457 C1323.8036571 3319.95635837 1326.6789002 3317.2792611 1329.58110046 3314.62919617 C1337.61429452 3307.29021589 1345.388756 3299.72817282 1353.07421875 3292.02734375 C1354.29425813 3290.80798077 1355.51444568 3289.58876603 1356.73477173 3288.36968994 C1359.26572172 3285.8401983 1361.79489514 3283.30894795 1364.32275391 3280.77636719 C1367.54336411 3277.55003 1370.76848676 3274.32824663 1373.9949398 3271.10775375 C1376.5053475 3268.60097629 1379.01334826 3266.09180157 1381.52064896 3263.58191681 C1382.70870483 3262.39320006 1383.8974867 3261.20520841 1385.08704758 3260.01799774 C1391.20616773 3253.90833148 1397.19050487 3247.75500611 1402.80078125 3241.16796875 C1404.04434082 3239.81075917 1405.29575913 3238.46059942 1406.5625 3237.125 C1407.20050537 3236.45025635 1407.83851074 3235.7755127 1408.49584961 3235.08032227 C1409.15335205 3234.38737061 1409.81085449 3233.69441895 1410.48828125 3232.98046875 C1422.20126956 3220.58366877 1433.80231096 3208.089021 1444.99609375 3195.21875 C1447.03036266 3192.90708078 1449.10300435 3190.63265445 1451.17578125 3188.35546875 C1455.05038649 3184.06269363 1458.72061855 3179.63760443 1462.359375 3175.14453125 C1465.08609024 3171.82012003 1467.87172869 3168.55211993 1470.67578125 3165.29296875 C1471.18399414 3164.70161133 1471.69220703 3164.11025391 1472.21582031 3163.50097656 C1473.24222721 3162.30686037 1474.26875679 3161.11284961 1475.29541016 3159.91894531 C1481.9723607 3152.15263177 1488.52837399 3144.32985703 1494.82324219 3136.24902344 C1497.5390727 3132.76386869 1500.29668595 3129.32287324 1503.11328125 3125.91796875 C1509.51575261 3118.13862183 1515.64158342 3110.14010426 1521.80078125 3102.16796875 C1522.24534668 3101.59320801 1522.68991211 3101.01844727 1523.14794922 3100.42626953 C1525.55340437 3097.31498151 1527.94946611 3094.19661398 1530.33984375 3091.07373047 C1531.42155813 3089.66265719 1532.50518586 3088.25305021 1533.58984375 3086.84423828 C1541.61217476 3076.42279882 1549.48083286 3065.93616827 1557.00390625 3055.1484375 C1559.72580152 3051.25203874 1562.53494533 3047.42497371 1565.36328125 3043.60546875 C1569.46703342 3038.04784911 1573.43616384 3032.41281232 1577.32666016 3026.70410156 C1580.06578293 3022.68595504 1582.83186786 3018.68905503 1585.62890625 3014.7109375 C1592.4892668 3004.94416055 1599.20913025 2995.14157462 1605.51245117 2985.00488281 C1608.75390974 2979.796198 1612.11208761 2974.68568342 1615.55078125 2969.60546875 C1622.69284896 2959.01058974 1629.31170542 2948.09432726 1635.95996094 2937.18554688 C1637.57029414 2934.54579643 1639.18707852 2931.91023351 1640.80859375 2929.27734375 C1652.18060027 2910.79529022 1663.13993542 2892.06851594 1673.80078125 2873.16796875 C1674.35958984 2872.17796875 1674.91839844 2871.18796875 1675.49414062 2870.16796875 C1691.14941558 2842.3672585 1705.90884111 2814.13826043 1720.20026016 2785.6144371 C1721.09320123 2783.8330282 1721.98754829 2782.05232427 1722.88192749 2780.27163696 C1734.71315262 2756.69184974 1745.90731267 2732.83569083 1756.48828125 2708.66796875 C1757.04480881 2707.3981868 1757.04480881 2707.3981868 1757.61257935 2706.10275269 C1798.60955982 2612.40137215 1831.85127377 2515.49695806 1912.48828125 2056.35546875 C1912.57955292 2054.74827469 1912.57955292 2054.74827469 1912.67266846 2053.10861206 C1913.0253667 2046.82004007 1913.35184565 2040.53065017 1913.65261841 2034.23937988 C1913.74820701 2032.25783118 1913.84729322 2030.27644663 1913.95065308 2028.29528809 C1915.14338587 2005.10929665 1914.98812521 1981.88975998 1914.98608398 1958.68017578 C1914.98600341 1953.9613862 1914.99284765 1949.24269515 1915.0065918 1944.52392578 C1915.12677391 1902.54132383 1914.07851834 1860.67069611 1910.98828125 1818.79296875 C1910.90463318 1817.63201691 1910.82098511 1816.47106506 1910.73480225 1815.27493286 C1903.50349469 1715.26929356 1888.61978935 1615.82211188 1795.80078125 1288.16796875 C1795.34848145 1286.97059082 1794.89618164 1285.77321289 1794.43017578 1284.53955078 C1777.04218353 1238.66446258 1757.79030353 1193.50983786 1736.80078125 1149.16796875 C1736.36266113 1148.23533203 1735.92454102 1147.30269531 1735.47314453 1146.34179688 C1728.65914613 1131.84436577 1721.52912865 1117.50143628 1714.38638306 1103.16394043 C1713.34883372 1101.08081407 1712.31247013 1098.9970966 1711.2774353 1096.91271973 C1704.49276972 1083.25959482 1697.42733179 1069.79899503 1690.0579834 1056.4526062 C1688.44278465 1053.51740317 1686.85661124 1050.56796923 1685.27734375 1047.61328125 C1678.32090654 1034.62196094 1671.04435649 1021.85173107 1663.55810547 1009.15917969 C1661.81527234 1006.19263461 1660.08852249 1003.21734489 1658.3671875 1000.23828125 C1650.40664978 986.47261876 1642.18732434 972.88363942 1633.79443359 959.37744141 C1631.83999362 956.23109462 1629.89234172 953.08062399 1627.9453125 949.9296875 C1620.34037484 937.65549854 1612.50414122 925.56476608 1604.43115234 913.59375 C1602.88397527 911.2917507 1601.34928481 908.982089 1599.8203125 906.66796875 C1591.68343444 894.35924578 1583.26653898 882.25219058 1574.80078125 870.16796875 C1574.25389648 869.38502441 1573.70701172 868.60208008 1573.14355469 867.79541016 C1565.78799242 857.26644817 1558.23050589 846.89807373 1550.58300781 836.57958984 C1548.81220894 834.18343214 1547.05106953 831.78048631 1545.29296875 829.375 C1537.82333043 819.16503335 1530.16578285 809.12534972 1522.36132812 799.16943359 C1520.95952854 797.37156861 1519.57102016 795.56491331 1518.19140625 793.75 C1512.96560443 786.87619205 1507.55990141 780.18649138 1502.04736328 773.54150391 C1498.34926536 769.07585727 1494.72981457 764.56133813 1491.17578125 759.98046875 C1486.08112325 753.42979392 1480.70740922 747.14535666 1475.27392578 740.875 C1472.90926675 738.13491118 1470.5733091 735.37080887 1468.23828125 732.60546875 C1467.78839844 732.07373047 1467.33851563 731.54199219 1466.875 730.99414062 C1464.59450237 728.29751771 1462.32048697 725.59570441 1460.0546875 722.88671875 C1454.61824939 716.40114347 1449.0411072 710.08576321 1443.29296875 703.875 C1440.65271511 701.00713829 1438.08285203 698.08760476 1435.52734375 695.14453125 C1425.69349783 683.88678004 1415.49254577 672.9432397 1405.2746582 662.03442383 C1402.58917087 659.1650929 1399.9120736 656.2898498 1397.26200867 653.38764954 C1389.92302839 645.35445548 1382.36098532 637.579994 1374.66015625 629.89453125 C1373.44079327 628.67449187 1372.22157853 627.45430432 1371.00250244 626.23397827 C1368.4730108 623.70302828 1365.94176045 621.17385486 1363.40917969 618.64599609 C1360.1828425 615.42538589 1356.96105913 612.20026324 1353.74056625 608.9738102 C1351.23378879 606.4634025 1348.72461407 603.95540174 1346.21472931 601.44810104 C1345.02601256 600.26004517 1343.83802091 599.0712633 1342.65081024 597.88170242 C1336.54114398 591.76258227 1330.38781861 585.77824513 1323.80078125 580.16796875 C1322.44357167 578.92440918 1321.09341192 577.67299087 1319.7578125 576.40625 C1318.74569702 575.44924194 1318.74569702 575.44924194 1317.71313477 574.47290039 C1317.02018311 573.81539795 1316.32723145 573.15789551 1315.61328125 572.48046875 C1303.21648127 560.76748044 1290.7218335 549.16643904 1277.8515625 537.97265625 C1275.53989328 535.93838734 1273.26546695 533.86574565 1270.98828125 531.79296875 C1266.69550613 527.91836351 1262.27041693 524.24813145 1257.77734375 520.609375 C1254.45293253 517.88265976 1251.18493243 515.09702131 1247.92578125 512.29296875 C1247.33442383 511.78475586 1246.74306641 511.27654297 1246.13378906 510.75292969 C1244.93967287 509.72652279 1243.74566211 508.69999321 1242.55175781 507.67333984 C1234.78544427 500.9963893 1226.96266953 494.44037601 1218.88183594 488.14550781 C1215.39668119 485.4296773 1211.95568574 482.67206405 1208.55078125 479.85546875 C1200.77143433 473.45299739 1192.77291676 467.32716658 1184.80078125 461.16796875 C1184.22602051 460.72340332 1183.65125977 460.27883789 1183.05908203 459.82080078 C1179.94779401 457.41534563 1176.82942648 455.01928389 1173.70654297 452.62890625 C1172.29546969 451.54719187 1170.88586271 450.46356414 1169.47705078 449.37890625 C1159.05561132 441.35657524 1148.56898077 433.48791714 1137.78125 425.96484375 C1133.88485124 423.24294848 1130.05778621 420.43380467 1126.23828125 417.60546875 C1120.68066161 413.50171658 1115.04562482 409.53258616 1109.33691406 405.64208984 C1105.31876754 402.90296707 1101.32186753 400.13688214 1097.34375 397.33984375 C1087.57697305 390.4794832 1077.77438712 383.75961975 1067.63769531 377.45629883 C1062.4290105 374.21484026 1057.31849592 370.85666239 1052.23828125 367.41796875 C1041.64340224 360.27590104 1030.72713976 353.65704458 1019.81835938 347.00878906 C1017.17860893 345.39845586 1014.54304601 343.78167148 1011.91015625 342.16015625 C993.42810272 330.78814973 974.70132844 319.82881458 955.80078125 309.16796875 C954.81078125 308.60916016 953.82078125 308.05035156 952.80078125 307.47460938 C925.000071 291.81933442 896.77107293 277.05990889 868.2472496 262.76848984 C866.4658407 261.87554877 864.68513677 260.98120171 862.90444946 260.08682251 C839.32466224 248.25559738 815.46850333 237.06143733 791.30078125 226.48046875 C790.0309993 225.92394119 790.0309993 225.92394119 788.73556519 225.35617065 C695.03418465 184.35919018 598.12977056 151.11747623 138.98828125 70.48046875 C137.91681854 70.41962097 136.84535583 70.35877319 135.74142456 70.29608154 C129.45285257 69.9433833 123.16346267 69.61690435 116.87219238 69.31613159 C114.89064368 69.22054299 112.90925913 69.12145678 110.92810059 69.01809692 C87.74210915 67.82536413 64.52257248 67.98062479 41.31298828 67.98266602 C36.5941987 67.98274659 31.87550765 67.97590235 27.15673828 67.9621582 C-14.82586367 67.84197609 -56.69649139 68.89023166 -98.57421875 71.98046875 Z " fill="#FFFFFF" transform="translate(1917.19921875,-0.16796875)"/>
<path d="M0 0 C0 4.09440233 -1.58689374 5.36742411 -4.125 8.5625 C-5.04563192 9.73172438 -5.96620129 10.90099801 -6.88671875 12.0703125 C-7.3873584 12.70098633 -7.88799805 13.33166016 -8.40380859 13.98144531 C-10.67269999 16.85070105 -12.91101206 19.74334161 -15.15185547 22.63452148 C-20.34673536 29.3344534 -25.57156858 36.01057876 -30.81616211 42.67163086 C-34.56247378 47.43352129 -38.28297215 52.21522981 -42 57 C-46.58733249 62.90507595 -51.19057168 68.79692783 -55.81640625 74.671875 C-59.56255732 79.43374633 -63.28304211 84.21531987 -67 89 C-71.58733249 94.90507595 -76.19057168 100.79692783 -80.81640625 106.671875 C-84.56255931 111.43374886 -88.28266054 116.21561389 -92 121 C-93.19134866 122.53129481 -94.38275422 124.06254535 -95.57421875 125.59375 C-97.72728737 128.36103573 -99.87546077 131.13198943 -102.01953125 133.90625 C-102.95035777 135.10429338 -103.88133792 136.30221741 -104.8125 137.5 C-105.99779297 139.03140625 -105.99779297 139.03140625 -107.20703125 140.59375 C-115.67017913 151.09680693 -125.3470793 160.49012188 -134.87695312 170.00634766 C-136.47290352 171.60365511 -138.06864155 173.20117478 -139.66418457 174.79888916 C-143.97117007 179.11040943 -148.28128331 183.41878991 -152.59212685 187.72645235 C-157.10682378 192.23860914 -161.61907098 196.75321466 -166.13171387 201.26742554 C-174.18239936 209.32004226 -182.23559407 217.37014309 -190.28979295 225.41924529 C-197.59728284 232.72225446 -204.90212767 240.02790075 -212.20507812 247.33544922 C-220.69764717 255.83336281 -229.19188362 264.329603 -237.68860579 272.82336462 C-242.18264779 277.31584472 -246.67600444 281.80900471 -251.1676178 286.30391312 C-255.3809941 290.52016505 -259.59678409 294.73398818 -263.8144989 298.94589996 C-265.36624119 300.49631374 -266.91712158 302.04759067 -268.46710205 303.59976578 C-270.57249672 305.70786797 -272.68090651 307.81290573 -274.79016113 309.91714478 C-275.72208369 310.85241342 -275.72208369 310.85241342 -276.67283297 311.80657637 C-280.88584904 316 -280.88584904 316 -282 316 C-282.14071743 305.53596577 -281.71314914 295.18669397 -281.06054688 284.74853516 C-280.95826482 283.06490057 -280.8561529 281.38125564 -280.75419617 279.69760132 C-279.82262541 264.45598326 -278.79649703 249.22030939 -277.74402618 233.98661232 C-277.03947071 223.76693534 -276.36438743 213.54700871 -275.76123047 203.32080078 C-275.23279603 194.36178479 -274.65055113 185.40820571 -274.00284433 176.45699155 C-273.6625587 171.72989095 -273.34873434 167.00445898 -273.09922791 162.27162552 C-272.86380451 157.82451036 -272.55601856 153.38826215 -272.19294167 148.9498024 C-272.07276635 147.32623629 -271.97860532 145.70049117 -271.91316795 144.07379913 C-271.69688087 138.9276305 -271.26245455 134.67529641 -269 130 C-264.93417617 126.41453393 -259.93116015 124.5126827 -254.88769168 122.69959342 C-252.36157868 121.76339602 -249.99306279 120.57340408 -247.60131836 119.33862305 C-246.01453724 118.56221713 -244.4273795 117.78658048 -242.83984375 117.01171875 C-241.97048691 116.58677124 -241.10113007 116.16182373 -240.20542908 115.72399902 C-237.44990471 114.37757148 -234.69376555 113.03240953 -231.9375 111.6875 C-230.50945038 110.99027328 -230.50945038 110.99027328 -229.05255127 110.27896118 C-217.82547698 104.79825816 -206.59191268 99.33398611 -195.30981445 93.96728516 C-187.06106777 90.04107642 -178.84287696 86.05278551 -170.625 82.0625 C-160.92672685 77.35380282 -151.22339343 72.65669023 -141.5 68 C-131.81873056 63.36321501 -122.1567095 58.68763767 -112.5 54 C-101.85616547 48.83318415 -91.20213425 43.68891693 -80.53125 38.578125 C-71.8411029 34.41222974 -63.16971044 30.20819621 -54.5 26 C-14.00515788 6.34826242 -14.00515788 6.34826242 0 0 Z " fill="#231F20" transform="translate(1305,2360)"/>
<path d="M0 0 C4.19438485 0.84255901 8.41329371 1.23506588 12.66604614 1.66217041 C31.87011765 3.89911842 46.78045216 7.32399066 62.90383911 18.63043213 C68.00155456 22.08786766 73.3850198 25.06106728 78.73245239 28.11138916 C85.13553194 31.81961923 91.48087599 35.59004891 97.73245239 39.54888916 C93.64854441 43.85789443 89.18926672 47.44108945 84.48245239 51.04888916 C83.69394897 51.65764893 82.90544556 52.26640869 82.0930481 52.89361572 C79.64284427 54.78308246 77.18840158 56.666898 74.73245239 58.54888916 C73.97690063 59.12832275 73.22134888 59.70775635 72.44290161 60.30474854 C68.86932995 63.04383014 65.29248635 65.77858317 61.71292114 68.50982666 C56.99771967 72.1078811 52.29213882 75.71814653 47.59963989 79.34576416 C45.80394019 80.72556611 43.99808806 82.09236368 42.17776489 83.43951416 C37.80176823 86.71046116 34.29999145 90.07465102 30.79104614 94.24810791 C17.33046743 109.29228412 3.06088202 118.98425037 -17.23678589 121.48419189 C-19.2375334 121.73266174 -21.23467024 122.00188938 -23.23239136 122.27349854 C-39.75280612 124.4371953 -55.59879083 123.36281718 -72.10348511 121.57745361 C-75.26127193 121.23706564 -78.42040725 120.91258208 -81.58004761 120.58990479 C-83.64264729 120.37275055 -85.70515093 120.15468175 -87.76754761 119.93560791 C-88.68471558 119.84172287 -89.60188354 119.74783783 -90.54684448 119.65110779 C-95.98314699 119.05322664 -101.26071981 118.14629797 -106.61483765 117.02593994 C-114.99206043 115.38777723 -123.16005779 115.10638455 -131.67965698 115.11651611 C-133.24850725 115.10746972 -134.81735052 115.09713562 -136.38618469 115.08563232 C-140.58966802 115.05837337 -144.79301616 115.04882082 -148.99657631 115.04277825 C-153.41015466 115.03331237 -157.82363518 115.00710329 -162.2371521 114.98277283 C-170.56997667 114.93932785 -178.90278201 114.91064645 -187.23568487 114.88744944 C-196.73290928 114.86027888 -206.23003419 114.81637536 -215.72718716 114.77116072 C-235.24058788 114.67863008 -254.75401495 114.60680579 -274.26754761 114.54888916 C-271.6782415 111.95958305 -270.03273294 111.9849501 -266.43209839 111.3994751 C-265.18417511 111.18588348 -263.93625183 110.97229187 -262.6505127 110.75222778 C-261.97263325 110.63718777 -261.2947538 110.52214775 -260.59633255 110.40362167 C-219.35868701 103.24502353 -183.05197723 90.44167154 -145.76754761 71.42388916 C-144.77592873 70.92165329 -143.78430984 70.41941742 -142.76264191 69.90196228 C-122.21545913 59.49218408 -102.12881993 49.17720912 -84.40100098 34.31359863 C-72.33492461 24.33301056 -59.28271593 16.15085672 -45.37423706 9.00396729 C-43.50656738 8.03137565 -41.65243901 7.0323417 -39.81271362 6.00787354 C-25.6082249 -1.89732058 -15.86100162 -3.43155009 0 0 Z " fill="#231F20" transform="translate(3627.267547607422,1681.4511108398438)"/>
<path d="M0 0 C8.73614162 2.37505571 17.06292511 5.65490102 25.47134399 8.97653198 C29.0717467 10.39863741 32.67572469 11.81158204 36.27946472 13.22520447 C38.20477595 13.98051658 40.12991329 14.73627211 42.05488586 15.4924469 C52.10406905 19.43877423 62.16898931 23.34413076 72.23626709 27.24401855 C75.31131617 28.43704071 78.38460368 29.63450289 81.45751953 30.83300781 C90.82616118 34.48190388 100.20313059 38.095805 109.63929749 41.56703186 C113.76227834 43.08511297 117.8781381 44.62199845 121.9937439 46.15994263 C123.94174655 46.88127774 125.89342459 47.59277087 127.8487854 48.29391479 C130.54292334 49.2603996 133.22294778 50.2591288 135.90234375 51.265625 C136.69879303 51.54098587 137.49524231 51.81634674 138.31582642 52.10005188 C140.4201087 52.91107521 142.1779762 53.67104261 144 55 C145.45288086 58.3046875 145.45288086 58.3046875 146 62 C146.16580566 63.11342773 146.33161133 64.22685547 146.50244141 65.37402344 C146.67525635 67.09927246 146.67525635 67.09927246 146.8515625 68.859375 C146.98046875 70.14070313 147.109375 71.42203125 147.2421875 72.7421875 C147.3050293 73.40186523 147.36787109 74.06154297 147.43261719 74.74121094 C147.62327525 76.73199085 147.82720362 78.72148525 148.03125 80.7109375 C148.76349275 88.1678586 149.19366902 95.50755217 149 103 C135.11609555 101.59500911 121.40510634 97.96530683 107.8125 94.875 C107.01220493 94.6934285 106.21190987 94.51185699 105.38736343 94.32478333 C74.6678253 87.3199734 46.78016941 77.31079315 18.54003906 63.19374084 C15.94960307 61.93804072 15.94960307 61.93804072 12.98242188 60.84617615 C10.14526114 59.73148504 7.57055769 58.63944413 5 57 C3.68970982 53.87733967 3.39962808 52.69346831 3.4140625 49.50390625 C3.37294342 48.76854141 3.33182434 48.03317657 3.28945923 47.27552795 C3.20231185 45.68543541 3.13654956 44.09405569 3.08996582 42.5022583 C2.96655971 39.06991071 2.66459898 35.66024912 2.37176514 32.23886108 C1.99822767 27.80811867 1.69216427 23.37256736 1.375 18.9375 C1.2399262 17.08786555 1.10451127 15.23825599 0.96875 13.38867188 C0.64191779 8.92605698 0.31964185 4.46313544 0 0 Z " fill="#231F20" transform="translate(406,1438)"/>
<path d="M0 0 C3.74389052 0.47728095 6.65719907 1.66709505 9.98291016 3.40844727 C11.43064316 4.15911217 11.43064316 4.15911217 12.90762329 4.92494202 C13.94099823 5.46662521 14.97437317 6.00830841 16.0390625 6.56640625 C18.25080787 7.70343581 20.46306399 8.83947231 22.67578125 9.97460938 C26.15012825 11.76425361 29.62060197 13.56019602 33.08251953 15.3737793 C36.43295121 17.12502177 39.79692157 18.84755939 43.1640625 20.56640625 C44.69590683 21.38196739 44.69590683 21.38196739 46.25869751 22.21400452 C53.12571928 25.68419949 58.35681699 26.69475566 66 26 C66.72662842 25.95456558 67.45325684 25.90913116 68.2019043 25.86231995 C70.21662102 25.7263838 72.22109976 25.54297926 74.23046875 25.34375 C74.95059647 25.27716187 75.67072418 25.21057373 76.41267395 25.14196777 C78.67142591 24.93273072 80.92948528 24.71703743 83.1875 24.5 C85.45626291 24.28346599 87.72512991 24.06853199 89.99446106 23.85803223 C92.04508867 23.66765783 94.09519589 23.47170182 96.14526367 23.27539062 C100.12397371 22.99114305 104.01345287 22.95342236 108 23 C106.73997945 28.80315582 105.47647984 34.60553881 104.2097168 40.40722656 C103.7790656 42.38195154 103.34937429 44.3568861 102.9206543 46.33203125 C102.30508231 49.16722061 101.6860884 52.00164404 101.06640625 54.8359375 C100.87470352 55.72243988 100.68300079 56.60894226 100.48548889 57.52230835 C100.30537766 58.34300812 100.12526642 59.16370789 99.93969727 60.00927734 C99.70320213 61.0951564 99.70320213 61.0951564 99.46192932 62.20297241 C99 64 99 64 98 66 C95.46833801 66.3923645 95.46833801 66.3923645 92.05004883 66.59423828 C90.13588921 66.7141362 90.13588921 66.7141362 88.18305969 66.8364563 C86.77440132 66.91472892 85.36572462 66.99267226 83.95703125 67.0703125 C82.51221972 67.15641213 81.06745175 67.24324555 79.62272644 67.33078003 C76.58058516 67.51308248 73.53816238 67.68893231 70.49536133 67.85986328 C66.63432353 68.07690774 62.77410661 68.30570217 58.91402149 68.53901863 C55.92066893 68.71924709 52.92706308 68.89492849 49.93335533 69.06914902 C48.51304508 69.15196134 47.09278644 69.2356647 45.67258644 69.32034683 C18.34507021 70.93505461 18.34507021 70.93505461 12 66 C2.33869997 62.00907045 -8.69991539 61.8430782 -19 61 C-15.38358341 47.91428208 -11.49127505 34.91710997 -7.51159668 21.9380188 C-6.96097609 20.14201776 -6.41142005 18.34569002 -5.86291504 16.54904175 C-5.08258458 13.99517693 -4.29786526 11.44270465 -3.51171875 8.890625 C-3.27339828 8.1092366 -3.03507782 7.32784821 -2.78953552 6.52278137 C-1.1147838 1.1147838 -1.1147838 1.1147838 0 0 Z " fill="#231F20" transform="translate(3200,2166)"/>
<path d="M0 0 C8.68352596 -0.32064122 17.17867845 0.67927444 25.78125 1.71484375 C27.28669625 1.89220873 28.79219035 2.06916804 30.29772949 2.2457428 C33.43135322 2.61452728 36.56447362 2.98725418 39.69726562 3.36303711 C43.71593195 3.8448879 47.73555575 4.31812977 51.75556183 4.78865719 C54.85447451 5.15207425 57.95293184 5.51925434 61.05125427 5.8876667 C62.53433936 6.06369331 64.01754463 6.23871025 65.50086975 6.41270256 C67.56419641 6.65544355 69.62687756 6.90306796 71.68945312 7.15209961 C72.86286255 7.29199814 74.03627197 7.43189667 75.24523926 7.57603455 C78 8 78 8 80 9 C79.45303127 14.49971545 78.90157655 19.99895549 78.34594727 25.49780273 C78.15753581 27.36877233 77.97035396 29.23986617 77.78442383 31.11108398 C77.51706421 33.79965233 77.24529558 36.48774382 76.97265625 39.17578125 C76.89032242 40.01337479 76.80798859 40.85096832 76.72315979 41.71394348 C76.39052638 44.95923889 76.03515255 47.89454234 75 51 C66.06024327 51.10707195 57.21452226 50.81091487 48.296875 50.1953125 C46.43026215 50.06925125 46.43026215 50.06925125 44.52593994 49.94064331 C41.92419347 49.76310366 39.32261025 49.58315629 36.72119141 49.40087891 C33.38262441 49.16894846 30.04371401 48.94649312 26.70420456 48.72886848 C23.50533723 48.51788085 20.30742716 48.29326657 17.109375 48.0703125 C15.30808136 47.95455368 15.30808136 47.95455368 13.47039795 47.8364563 C12.37125061 47.75652435 11.27210327 47.67659241 10.13964844 47.59423828 C9.16848083 47.52761993 8.19731323 47.46100159 7.19671631 47.3923645 C6.10934174 47.19814407 6.10934174 47.19814407 5 47 C3.29999145 43.59998289 3.38027171 39.72280934 3.02734375 35.9765625 C2.8962899 34.62998062 2.8962899 34.62998062 2.7625885 33.25619507 C2.57836657 31.35489763 2.39608246 29.4534116 2.21557617 27.55175781 C1.93925065 24.64342559 1.65666393 21.73575427 1.37304688 18.828125 C1.19494114 16.98180662 1.01719493 15.13545351 0.83984375 13.2890625 C0.75548569 12.4191568 0.67112762 11.5492511 0.58421326 10.65298462 C0.50735794 9.8388913 0.43050262 9.02479797 0.35131836 8.18603516 C0.28327499 7.47258942 0.21523163 6.75914368 0.14512634 6.02407837 C0.00147794 4.02061281 0 2.00860875 0 0 Z " fill="#231F20" transform="translate(3098,1930)"/>
<path d="M0 0 C25.37101004 -2.67063264 56.05564927 25.11663909 74.9375 38.75 C75.74227783 39.32194092 76.54705566 39.89388184 77.3762207 40.4831543 C78.47196411 41.28813354 78.47196411 41.28813354 79.58984375 42.109375 C80.22784912 42.57311523 80.86585449 43.03685547 81.52319336 43.51464844 C83.34721037 45.34921936 83.59998163 46.46109616 84 49 C83.62672424 50.96160889 83.62672424 50.96160889 82.92016602 53.03417969 C82.65982071 53.81468689 82.3994754 54.59519409 82.13124084 55.39935303 C81.69696022 56.6480014 81.69696022 56.6480014 81.25390625 57.921875 C80.96394272 58.78186096 80.67397919 59.64184692 80.37522888 60.52789307 C79.44745999 63.27203819 78.50520249 66.01095355 77.5625 68.75 C76.93067963 70.61035098 76.29980858 72.47102467 75.66992188 74.33203125 C74.12426922 78.89183754 72.56560477 83.44700765 71 88 C67 88 67 88 65.140625 86.49609375 C64.51671875 85.81675781 63.8928125 85.13742187 63.25 84.4375 C60.68866166 81.74456997 58.1358139 79.16742522 55.3125 76.75 C51.6747241 73.61965453 48.1436423 70.38758369 44.625 67.125 C40.70891382 63.49643107 36.78244221 59.88232205 32.8125 56.3125 C32.06419922 55.62704102 31.31589844 54.94158203 30.54492188 54.23535156 C28.09966461 52.01580507 28.09966461 52.01580507 25.6809082 50.32641602 C16.3731561 43.19928816 12.84929765 33.13043614 8.375 22.625 C7.5555675 20.76336091 6.73396866 18.90267379 5.91015625 17.04296875 C5.13350701 15.27166942 4.35869834 13.49956167 3.5859375 11.7265625 C3.04240128 10.47971176 3.04240128 10.47971176 2.48788452 9.20767212 C2.1597879 8.43611786 1.83169128 7.6645636 1.49365234 6.86962891 C1.20404633 6.19284088 0.91444031 5.51605286 0.61605835 4.8187561 C0 3 0 3 0 0 Z " fill="#231F20" transform="translate(175,1480)"/>
<path d="M0 0 C5.34453726 4.20740167 9.44414839 8.82825391 13.6796875 14.140625 C15.87469854 16.8455881 18.1502746 19.42922029 20.5 22 C24.41891252 26.29991791 28.09170869 30.75919547 31.75 35.28125 C33.93501569 37.92147729 36.19171391 40.4672972 38.5 43 C41.52282421 46.31989486 44.42512161 49.69764112 47.25 53.1875 C50.8547026 57.63852408 54.55374265 61.99194929 58.3125 66.3125 C58.86284912 66.94526855 59.41319824 67.57803711 59.98022461 68.22998047 C61.09866502 69.51541308 62.21723625 70.80073188 63.3359375 72.0859375 C70.72932335 80.59006676 78.04877913 89.126971 85 98 C82.41777605 99.72148263 80.84228223 100.48056846 77.95922852 101.32861328 C77.15151505 101.56871124 76.34380157 101.8088092 75.51161194 102.05618286 C74.64281906 102.30834564 73.77402618 102.56050842 72.87890625 102.8203125 C71.98259995 103.08383514 71.08629364 103.34735779 70.16282654 103.61886597 C68.2680699 104.17440567 66.37254483 104.72733022 64.47631836 105.27783203 C61.57494785 106.12138089 58.67704124 106.97612 55.77929688 107.83203125 C53.9376981 108.37046967 52.09590737 108.90825212 50.25390625 109.4453125 C49.3871376 109.70152374 48.52036896 109.95773499 47.62733459 110.22171021 C46.81646896 110.45550385 46.00560333 110.68929749 45.17016602 110.93017578 C44.45973648 111.13732208 43.74930695 111.34446838 43.01734924 111.55789185 C41 112 41 112 37 112 C28.33098907 86.85779823 19.84059324 61.65628411 11.41649246 36.43114853 C10.62293234 34.05631223 9.82821209 31.68186705 9.03317261 29.30752563 C7.76907061 25.53181123 6.50805808 21.75507895 5.24944496 17.97753143 C4.77835262 16.56509809 4.30625499 15.15299961 3.83312035 13.74124908 C3.18231728 11.79857407 2.53562708 9.85452265 1.88916016 7.91040039 C1.52279449 6.81272842 1.15642883 5.71505646 0.77896118 4.5841217 C0 2 0 2 0 0 Z " fill="#231F20" transform="translate(1203,1401)"/>
<path d="M0 0 C8.00714832 2.11293675 15.91116424 4.48263197 23.8046875 6.984375 C25.00449249 7.36305725 26.20429749 7.7417395 27.44046021 8.13189697 C29.97040863 8.93096629 32.5000767 9.73086134 35.02929688 10.53222656 C38.82835607 11.73582209 42.62901714 12.93431406 46.4296875 14.1328125 C60.66326896 18.62894847 74.8583684 23.22229106 89 28 C89 28.33 89 28.66 89 29 C72.86824361 30.49075286 56.73306391 31.65118232 40.5625 32.625 C38.35480128 32.76014865 36.1471189 32.89556426 33.93945312 33.03125 C28.62648516 33.35722519 23.3133297 33.67997789 18 34 C17.5968457 33.2793335 17.19369141 32.55866699 16.77832031 31.81616211 C15.26522633 29.11175647 13.75184684 26.40751086 12.23828125 23.70336914 C11.26801257 21.96968501 10.29806573 20.23582076 9.328125 18.50195312 C8.4 16.84389648 8.4 16.84389648 7.453125 15.15234375 C6.5569043 13.54915283 6.5569043 13.54915283 5.64257812 11.91357422 C4.30044184 9.53291809 2.93204612 7.17205219 1.546875 4.81640625 C0 2 0 2 0 0 Z " fill="#231F20" transform="translate(967,2235)"/>
<path d="" fill="#231F20" transform="translate(0,0)"/>
</svg>
